<svg viewBox="0 0 18 15" width="20" color="textSubtle" xmlns="http://www.w3.org/2000/svg" class="sc-8a800401-0 eslIYO" style="cursor:pointer"><path fill="currentColor" d="M5.659 15c6.79 0 10.507-5.766 10.507-10.763 0-.16 0-.32-.01-.49A7.578 7.578 0 0 0 18 1.79c-.663.3-1.376.5-2.127.6a3.824 3.824 0 0 0 1.63-2.1 7.12 7.12 0 0 1-2.352.92A3.6 3.6 0 0 0 12.46 0c-2.041 0-3.7 1.699-3.7 3.787 0 .3.039.58.098.86-3.064-.15-5.786-1.669-7.61-3.957A3.858 3.858 0 0 0 .75 2.598c0 1.31.654 2.469 1.64 3.148a3.638 3.638 0 0 1-1.669-.47v.05c0 1.83 1.278 3.368 2.956 3.708-.312.09-.634.13-.976.13-.234 0-.468-.02-.692-.07.468 1.509 1.834 2.598 3.453 2.628a7.284 7.284 0 0 1-4.585 1.62c-.293 0-.595-.01-.878-.05A10.206 10.206 0 0 0 5.659 15z"/></svg>