<svg viewBox="0 0 24 24" color="backgroundAlt" width="20" xmlns="http://www.w3.org/2000/svg" class="sc-8a800401-0 cBTNLV"><path fill-rule="evenodd" clip-rule="evenodd" d="M4.153 13.609v.001c.62 3.201 3.27 5.758 6.494 6.275h.003c2.391.389 4.612-.275 6.292-1.602-5.587-1.995-8.967-7.93-7.68-13.795-3.564 1.284-5.904 5.024-5.109 9.12ZM10.008 2.21C4.766 3.253 1.1 8.369 2.19 13.99c.78 4.03 4.09 7.22 8.14 7.87 3.521.57 6.766-.7 8.936-3.002l.03-.033c.143-.152.28-.308.412-.468l.008-.01c.17-.205.33-.418.484-.638.21-.31.04-.75-.33-.79a10.2 10.2 0 0 1-1.376-.252l-.006-.001c-5.465-1.402-8.763-7.187-7.034-12.633l.002-.006a9.79 9.79 0 0 1 .1-.295c0-.004.002-.008.003-.011.118-.333.255-.664.411-.992.16-.34-.12-.72-.5-.7-.275.014-.546.038-.814.074l-.013.001a9.992 9.992 0 0 0-.635.106Z"/></svg>