<svg viewBox="0 0 24 24" color="#fff" width="36" xmlns="http://www.w3.org/2000/svg" class="sc-8a800401-0 hSrmZ"><path fill-rule="evenodd" clip-rule="evenodd" d="M1.414 13.482 9.37 5.527l.707.707a.75.75 0 0 0 1.061-1.06l-.707-.707 2.298-2.298a2 2 0 0 1 2.829 0l1.06 1.06a.5.5 0 0 1 0 .707 2.5 2.5 0 0 0 3.536 3.536.5.5 0 0 1 .707 0l1.06 1.06a2 2 0 0 1 0 2.83l-2.298 2.297-.707-.707a.75.75 0 0 0-1.06 1.06l.707.708-7.955 7.955a2 2 0 0 1-2.829 0l-1.06-1.06a.5.5 0 0 1 0-.708 2.5 2.5 0 1 0-3.536-3.535.5.5 0 0 1-.707 0l-1.06-1.061a2 2 0 0 1 0-2.829Zm11.844-6.187a.75.75 0 1 0-1.06 1.06l.707.708a.75.75 0 1 0 1.06-1.06l-.707-.708Zm1.768 2.829a.75.75 0 0 1 1.06 0l.708.707a.75.75 0 0 1-1.06 1.06l-.708-.707a.75.75 0 0 1 0-1.06Z"/></svg>