<svg xmlns="http://www.w3.org/2000/svg" fill="currentColor" viewBox="0 0 24 24" class="css-185c2vb"><path fill-rule="evenodd" d="M10.35 8c.457 0 .844.316 1.041.727a4 4 0 0 0 7.218 0c.197-.411.584-.727 1.04-.727H21a1 1 0 1 0 0-2h-1.35c-.457 0-.844-.316-1.041-.727a4 4 0 0 0-7.218 0c-.197.411-.584.727-1.04.727H3a1 1 0 0 0 0 2h7.35zM13 7a2 2 0 1 0 4 0 2 2 0 0 0-4 0zm9 10a1 1 0 0 0-1-1h-7.35c-.457 0-.844-.316-1.041-.727a4 4 0 0 0-7.218 0c-.197.411-.584.727-1.04.727H3a1 1 0 1 0 0 2h1.35c.457 0 .844.316 1.041.727a4 4 0 0 0 7.218 0c.197-.411.584-.727 1.04-.727H21a1 1 0 0 0 1-1zM9 19a2 2 0 1 0 0-4 2 2 0 0 0 0 4z" clip-rule="evenodd"/></svg>