<svg width="24" height="25" viewBox="0 0 24 25" fill="none" xmlns="http://www.w3.org/2000/svg">
<circle cx="12.0001" cy="12.5" r="12" fill="url(#paint0_linear_828_7488)"/>
<path fill-rule="evenodd" clip-rule="evenodd" d="M11.9646 20.4687C9.62923 20.4669 7.748 19.9065 6.43357 18.8999C5.10337 17.8812 4.39771 16.4357 4.39771 14.8C4.39771 13.2239 5.10182 12.0874 5.89853 11.3192C6.52289 10.7171 7.2119 10.3316 7.69165 10.1098C7.58316 9.77683 7.4478 9.34095 7.32671 8.89073C7.16466 8.28829 7.00569 7.58147 7.00569 7.06351C7.00569 6.45044 7.13936 5.83474 7.49976 5.35632C7.88054 4.85086 8.45378 4.58008 9.14339 4.58008C9.68236 4.58008 10.1399 4.78 10.4982 5.12489C10.8406 5.45455 11.0685 5.89235 11.2258 6.34873C11.5024 7.15067 11.61 8.15819 11.6402 9.16364H12.3008C12.331 8.15819 12.4386 7.15067 12.7151 6.34873C12.8725 5.89235 13.1004 5.45455 13.4428 5.12489C13.801 4.78 14.2586 4.58008 14.7976 4.58008C15.4872 4.58008 16.0604 4.85086 16.4412 5.35632C16.8016 5.83474 16.9353 6.45044 16.9353 7.06351C16.9353 7.58147 16.7763 8.28829 16.6143 8.89073C16.4932 9.34095 16.3578 9.77683 16.2493 10.1098C16.7291 10.3316 17.4181 10.7171 18.0425 11.3192C18.8392 12.0874 19.5433 13.2239 19.5433 14.8C19.5433 16.4357 18.8376 17.8812 17.5074 18.8999C16.193 19.9065 14.3118 20.4669 11.9763 20.4687H11.9646Z" fill="#633001"/>
<path d="M9.14342 5.16309C8.13336 5.16309 7.66841 5.92431 7.66841 6.97707C7.66841 7.81386 8.20865 9.48974 8.4303 10.1421C8.48016 10.2889 8.40182 10.4496 8.25895 10.5065C7.44942 10.829 5.06042 12.0096 5.06042 14.7135C5.06042 17.5618 7.48819 19.7094 11.9652 19.7128C11.967 19.7128 11.9687 19.7128 11.9705 19.7128C11.9723 19.7128 11.9741 19.7128 11.9759 19.7128C16.4529 19.7094 18.8806 17.5618 18.8806 14.7135C18.8806 12.0096 16.4916 10.829 15.6821 10.5065C15.5392 10.4496 15.4609 10.2889 15.5108 10.1421C15.7324 9.48974 16.2726 7.81386 16.2726 6.97707C16.2726 5.92431 15.8077 5.16309 14.7976 5.16309C13.3437 5.16309 12.9813 7.24366 12.9554 9.47662C12.9537 9.62569 12.8344 9.74664 12.6868 9.74664H11.2542C11.1067 9.74664 10.9874 9.62569 10.9857 9.47662C10.9598 7.24366 10.5974 5.16309 9.14342 5.16309Z" fill="#D1884F"/>
<path d="M11.9759 18.8007C8.6864 18.8007 5.06611 17.0219 5.06044 14.7192C5.06043 14.7228 5.06042 14.7264 5.06042 14.73C5.06042 17.5806 7.49205 19.7293 11.9759 19.7293C16.4597 19.7293 18.8913 17.5806 18.8913 14.73C18.8913 14.7264 18.8913 14.7228 18.8913 14.7192C18.8856 17.0219 15.2653 18.8007 11.9759 18.8007Z" fill="#FEDC90"/>
<path d="M10.1481 14.0119C10.1481 14.7893 9.7844 15.1943 9.33576 15.1943C8.88713 15.1943 8.52344 14.7893 8.52344 14.0119C8.52344 13.2345 8.88713 12.8296 9.33576 12.8296C9.7844 12.8296 10.1481 13.2345 10.1481 14.0119Z" fill="#633001"/>
<path d="M15.4282 14.0119C15.4282 14.7893 15.0645 15.1943 14.6159 15.1943C14.1673 15.1943 13.8036 14.7893 13.8036 14.0119C13.8036 13.2345 14.1673 12.8296 14.6159 12.8296C15.0645 12.8296 15.4282 13.2345 15.4282 14.0119Z" fill="#633001"/>
<defs>
<linearGradient id="paint0_linear_828_7488" x1="12.0001" y1="0.5" x2="12.0001" y2="24.5" gradientUnits="userSpaceOnUse">
<stop stop-color="#54DADE"/>
<stop offset="0.762157" stop-color="#24C7D6"/>
</linearGradient>
</defs>
</svg>
