<svg width="142" height="64" viewBox="0 0 142 64" fill="none" xmlns="http://www.w3.org/2000/svg">
<path d="M27.3623 38.0106C27.0323 38.0106 26.7991 37.9421 26.6625 37.8052C26.5373 37.6682 26.4747 37.4513 26.4747 37.1545V27.2411C26.4747 26.9443 26.543 26.7275 26.6796 26.5905C26.8161 26.4421 27.0437 26.3679 27.3623 26.3679H31.5444C33.1375 26.3679 34.3096 26.7046 35.0607 27.3781C35.8117 28.0515 36.1873 29.056 36.1873 30.3915C36.1873 31.7156 35.8117 32.7143 35.0607 33.3878C34.321 34.0498 33.1489 34.3808 31.5444 34.3808H29.9228V37.1545C29.9228 37.4513 29.8545 37.6682 29.7179 37.8052C29.5814 37.9421 29.3481 38.0106 29.0181 38.0106H27.3623ZM31.2713 31.8982C31.7378 31.8982 32.0963 31.7726 32.3466 31.5215C32.6084 31.2704 32.7392 30.8937 32.7392 30.3915C32.7392 29.8778 32.6084 29.4955 32.3466 29.2443C32.0963 28.9932 31.7378 28.8677 31.2713 28.8677H29.9228V31.8982H31.2713Z" fill="#090909"/>
<path d="M40.2185 38.2674C39.1488 38.2674 38.2896 37.925 37.641 37.2401C37.0037 36.5439 36.6851 35.5679 36.6851 34.3123C36.6851 33.3535 36.9013 32.5146 37.3337 31.7955C37.7775 31.0764 38.3977 30.5228 39.1943 30.1347C40.0023 29.7352 40.9297 29.5354 41.9766 29.5354C42.8415 29.5354 43.6039 29.6324 44.2639 29.8265C44.9353 30.0091 45.5499 30.2773 46.1075 30.6312V37.4798C46.1075 37.6967 46.0676 37.8394 45.988 37.9079C45.9083 37.9764 45.749 38.0106 45.51 38.0106H43.7689C43.6438 38.0106 43.547 37.9935 43.4788 37.9593C43.4105 37.9136 43.3536 37.8451 43.3081 37.7538L43.0862 37.2401C42.7561 37.594 42.3579 37.8508 41.8913 38.0106C41.4361 38.1818 40.8785 38.2674 40.2185 38.2674ZM41.4987 35.9389C41.9425 35.9389 42.2896 35.8305 42.5399 35.6136C42.7903 35.3967 42.9155 35.0885 42.9155 34.689V32.018C42.6992 31.9153 42.4261 31.864 42.0961 31.864C41.493 31.864 41.0094 32.0751 40.6452 32.4975C40.2924 32.9198 40.1161 33.5133 40.1161 34.2781C40.1161 35.3853 40.5769 35.9389 41.4987 35.9389Z" fill="#090909"/>
<path d="M48.4829 38.0106C48.1529 38.0106 47.9196 37.9421 47.7831 37.8052C47.6465 37.6682 47.5782 37.4513 47.5782 37.1545V30.323C47.5782 30.1175 47.6124 29.9806 47.6806 29.9121C47.7603 29.8322 47.9196 29.7922 48.1586 29.7922H49.9168C50.0533 29.7922 50.1557 29.8151 50.224 29.8607C50.3037 29.895 50.3492 29.9635 50.3606 30.0662L50.4459 30.5798C50.7645 30.2602 51.1799 30.0091 51.692 29.8265C52.2154 29.6324 52.7958 29.5354 53.4331 29.5354C54.3548 29.5354 55.1002 29.7979 55.6692 30.323C56.2382 30.8367 56.5226 31.6014 56.5226 32.6173V37.1545C56.5226 37.4513 56.4544 37.6682 56.3178 37.8052C56.1926 37.9421 55.965 38.0106 55.635 38.0106H53.9793C53.6493 38.0106 53.4103 37.9421 53.2624 37.8052C53.1258 37.6682 53.0575 37.4513 53.0575 37.1545V32.8399C53.0575 32.4975 52.9836 32.252 52.8356 32.1037C52.6877 31.9553 52.4544 31.8811 52.1358 31.8811C51.7944 31.8811 51.5213 31.9724 51.3165 32.155C51.123 32.3377 51.0263 32.5888 51.0263 32.9084V37.1545C51.0263 37.4513 50.958 37.6682 50.8214 37.8052C50.6963 37.9421 50.4687 38.0106 50.1387 38.0106H48.4829Z" fill="#090909"/>
<path d="M62.5562 38.2674C60.963 38.2674 59.734 37.8965 58.8692 37.1545C58.0043 36.4126 57.5719 35.3339 57.5719 33.9185C57.5719 33.0511 57.771 32.2863 58.1693 31.6242C58.5676 30.9622 59.1423 30.4486 59.8933 30.0833C60.6558 29.718 61.5548 29.5354 62.5903 29.5354C63.3755 29.5354 64.0355 29.6096 64.5704 29.758C65.1166 29.9064 65.6002 30.1347 66.0213 30.4429C66.1465 30.5228 66.209 30.6255 66.209 30.751C66.209 30.8424 66.1635 30.9622 66.0725 31.1106L65.3726 32.3262C65.293 32.486 65.1963 32.5659 65.0825 32.5659C65.0142 32.5659 64.9061 32.5203 64.7581 32.429C64.4509 32.2349 64.1607 32.0922 63.8876 32.0009C63.6259 31.9096 63.2959 31.864 62.8976 31.864C62.3286 31.864 61.8677 32.0466 61.5149 32.4118C61.1735 32.7771 61.0029 33.2793 61.0029 33.9185C61.0029 34.5692 61.1792 35.0714 61.532 35.4253C61.8848 35.7677 62.3684 35.9389 62.9829 35.9389C63.3471 35.9389 63.6771 35.8875 63.9729 35.7848C64.2688 35.6821 64.5704 35.5394 64.8776 35.3568C65.0369 35.2654 65.1507 35.2198 65.219 35.2198C65.3214 35.2198 65.4125 35.2997 65.4921 35.4595L66.2603 36.7779C66.3172 36.892 66.3456 36.9833 66.3456 37.0518C66.3456 37.1545 66.2773 37.2516 66.1408 37.3429C65.6628 37.6511 65.1394 37.8793 64.5704 38.0277C64.0128 38.1875 63.3414 38.2674 62.5562 38.2674Z" fill="#090909"/>
<path d="M70.6735 38.2674C69.6038 38.2674 68.7447 37.925 68.096 37.2401C67.4588 36.5439 67.1401 35.5679 67.1401 34.3123C67.1401 33.3535 67.3563 32.5146 67.7888 31.7955C68.2326 31.0764 68.8528 30.5228 69.6494 30.1347C70.4573 29.7352 71.3848 29.5354 72.4317 29.5354C73.2965 29.5354 74.059 29.6324 74.719 29.8265C75.3904 30.0091 76.0049 30.2773 76.5625 30.6312V37.4798C76.5625 37.6967 76.5227 37.8394 76.443 37.9079C76.3634 37.9764 76.204 38.0106 75.9651 38.0106H74.224C74.0988 38.0106 74.0021 37.9935 73.9338 37.9593C73.8655 37.9136 73.8086 37.8451 73.7631 37.7538L73.5412 37.2401C73.2112 37.594 72.8129 37.8508 72.3463 38.0106C71.8911 38.1818 71.3335 38.2674 70.6735 38.2674ZM71.9537 35.9389C72.3975 35.9389 72.7446 35.8305 72.995 35.6136C73.2453 35.3967 73.3705 35.0885 73.3705 34.689V32.018C73.1543 31.9153 72.8812 31.864 72.5512 31.864C71.948 31.864 71.4644 32.0751 71.1003 32.4975C70.7475 32.9198 70.5711 33.5133 70.5711 34.2781C70.5711 35.3853 71.032 35.9389 71.9537 35.9389Z" fill="#090909"/>
<path d="M87.2849 37.36C87.3646 37.4513 87.4044 37.554 87.4044 37.6682C87.4044 37.7709 87.3703 37.8565 87.302 37.925C87.2337 37.9821 87.1427 38.0106 87.0289 38.0106H84.3831C84.2238 38.0106 84.1043 37.9992 84.0247 37.9764C83.9564 37.9421 83.8824 37.8794 83.8028 37.788L81.4813 34.6205V37.1545C81.4813 37.4513 81.413 37.6682 81.2765 37.8052C81.1399 37.9421 80.9066 38.0106 80.5766 38.0106H78.9209C78.5909 38.0106 78.3576 37.9421 78.221 37.8052C78.0959 37.6682 78.0333 37.4513 78.0333 37.1545V27.2411C78.0333 26.9443 78.1016 26.7275 78.2381 26.5905C78.3747 26.4421 78.6023 26.3679 78.9209 26.3679H80.5766C80.9066 26.3679 81.1399 26.4421 81.2765 26.5905C81.413 26.7275 81.4813 26.9443 81.4813 27.2411V32.9769L83.7345 30.0319C83.8028 29.9406 83.8767 29.8778 83.9564 29.8436C84.036 29.8094 84.1555 29.7922 84.3148 29.7922H86.9606C87.0744 29.7922 87.1598 29.8265 87.2167 29.895C87.2849 29.952 87.3191 30.0319 87.3191 30.1347C87.3191 30.2488 87.2792 30.3515 87.1996 30.4429L84.2807 33.7987L87.2849 37.36Z" fill="#090909"/>
<path d="M92.8275 38.2674C91.8716 38.2674 91.0181 38.1076 90.267 37.788C89.5274 37.4684 88.9413 36.989 88.5089 36.3498C88.0765 35.7106 87.8602 34.9287 87.8602 34.0042C87.8602 32.5545 88.2699 31.4473 89.0892 30.6826C89.9086 29.9178 91.0864 29.5354 92.6226 29.5354C94.1247 29.5354 95.2627 29.9121 96.0365 30.6654C96.8217 31.4074 97.2143 32.4404 97.2143 33.7645C97.2143 34.3352 96.964 34.6205 96.4633 34.6205H91.1034C91.1034 35.1114 91.2855 35.488 91.6497 35.7506C92.0252 36.0131 92.5885 36.1444 93.3395 36.1444C93.8061 36.1444 94.193 36.1044 94.5003 36.0245C94.8189 35.9332 95.1375 35.8019 95.4562 35.6307C95.5927 35.5736 95.6838 35.5451 95.7293 35.5451C95.8317 35.5451 95.917 35.6136 95.9853 35.7506L96.5657 36.8463C96.6226 36.9605 96.651 37.0461 96.651 37.1032C96.651 37.2059 96.5828 37.3029 96.4462 37.3942C95.9796 37.7024 95.4505 37.925 94.8587 38.062C94.267 38.199 93.5899 38.2674 92.8275 38.2674ZM94.1418 32.9255C94.1418 32.4917 94.0166 32.155 93.7663 31.9153C93.5159 31.6756 93.1404 31.5558 92.6397 31.5558C92.139 31.5558 91.7578 31.6813 91.496 31.9324C91.2343 32.1721 91.1034 32.5032 91.1034 32.9255H94.1418Z" fill="#090909"/>
<path d="M103.065 38.2674C102.109 38.2674 101.204 38.1704 100.351 37.9764C99.4974 37.7709 98.8089 37.4856 98.2854 37.1203C98.092 36.9947 97.9952 36.8635 97.9952 36.7265C97.9952 36.6352 98.0294 36.5382 98.0977 36.4354L98.9341 35.0999C99.0251 34.963 99.1161 34.8945 99.2072 34.8945C99.2641 34.8945 99.3608 34.9344 99.4974 35.0143C99.9184 35.254 100.396 35.4481 100.931 35.5965C101.466 35.7449 101.995 35.819 102.519 35.819C103.054 35.819 103.446 35.7391 103.696 35.5793C103.958 35.4195 104.089 35.1627 104.089 34.8089C104.089 34.4664 103.947 34.1982 103.662 34.0042C103.389 33.8101 102.871 33.5647 102.109 33.2679C100.96 32.8342 100.061 32.3491 99.412 31.8126C98.7747 31.2647 98.4561 30.5228 98.4561 29.5868C98.4561 28.4567 98.8601 27.595 99.6681 27.0014C100.476 26.4079 101.551 26.1111 102.894 26.1111C103.827 26.1111 104.624 26.1967 105.284 26.3679C105.955 26.5277 106.524 26.7788 106.991 27.1213C107.184 27.2696 107.281 27.4066 107.281 27.5322C107.281 27.6121 107.247 27.7034 107.179 27.8061L106.342 29.1416C106.24 29.2786 106.149 29.3471 106.069 29.3471C106.012 29.3471 105.916 29.3071 105.779 29.2272C105.119 28.7935 104.334 28.5766 103.423 28.5766C102.934 28.5766 102.558 28.6565 102.297 28.8163C102.035 28.9761 101.904 29.2386 101.904 29.6039C101.904 29.855 101.972 30.0605 102.109 30.2203C102.246 30.3801 102.428 30.5228 102.655 30.6483C102.894 30.7625 103.258 30.9108 103.748 31.0935L104.072 31.2133C104.914 31.5443 105.574 31.864 106.052 32.1721C106.541 32.4689 106.911 32.8399 107.162 33.285C107.412 33.7188 107.537 34.2667 107.537 34.9287C107.537 35.9446 107.156 36.755 106.393 37.36C105.642 37.965 104.533 38.2674 103.065 38.2674Z" fill="#090909"/>
<path d="M111.164 38.0106C110.993 38.0106 110.862 37.9821 110.771 37.925C110.68 37.8679 110.612 37.7538 110.566 37.5826L108.364 30.186C108.342 30.1175 108.33 30.0662 108.33 30.0319C108.33 29.8721 108.444 29.7922 108.672 29.7922H110.925C111.073 29.7922 111.181 29.8208 111.249 29.8778C111.317 29.9235 111.363 30.0034 111.386 30.1175L112.307 34.0042L113.468 30.8709C113.525 30.7339 113.582 30.6426 113.639 30.597C113.707 30.5399 113.821 30.5113 113.98 30.5113H115.056C115.215 30.5113 115.323 30.5399 115.38 30.597C115.448 30.6426 115.511 30.7339 115.568 30.8709L116.711 34.0042L117.65 30.1175C117.684 30.0034 117.73 29.9235 117.787 29.8778C117.844 29.8208 117.946 29.7922 118.094 29.7922H120.364C120.592 29.7922 120.706 29.8721 120.706 30.0319C120.706 30.0662 120.694 30.1175 120.672 30.186L118.453 37.5826C118.407 37.7538 118.339 37.8679 118.248 37.925C118.168 37.9821 118.043 38.0106 117.872 38.0106H116.199C116.04 38.0106 115.921 37.9821 115.841 37.925C115.761 37.8565 115.693 37.7424 115.636 37.5826L114.509 34.4836L113.383 37.5826C113.337 37.7424 113.269 37.8565 113.178 37.925C113.098 37.9821 112.979 38.0106 112.82 38.0106H111.164Z" fill="#090909"/>
<path d="M125.033 38.2674C123.963 38.2674 123.104 37.925 122.455 37.2401C121.818 36.5439 121.499 35.5679 121.499 34.3123C121.499 33.3535 121.715 32.5146 122.148 31.7955C122.592 31.0764 123.212 30.5228 124.008 30.1347C124.816 29.7352 125.744 29.5354 126.791 29.5354C127.656 29.5354 128.418 29.6324 129.078 29.8265C129.749 30.0091 130.364 30.2773 130.922 30.6312V37.4798C130.922 37.6967 130.882 37.8394 130.802 37.9079C130.722 37.9764 130.563 38.0106 130.324 38.0106H128.583C128.458 38.0106 128.361 37.9935 128.293 37.9593C128.225 37.9136 128.168 37.8451 128.122 37.7538L127.9 37.2401C127.57 37.594 127.172 37.8508 126.705 38.0106C126.25 38.1818 125.693 38.2674 125.033 38.2674ZM126.313 35.9389C126.757 35.9389 127.104 35.8305 127.354 35.6136C127.604 35.3967 127.73 35.0885 127.73 34.689V32.018C127.513 31.9153 127.24 31.864 126.91 31.864C126.307 31.864 125.823 32.0751 125.459 32.4975C125.107 32.9198 124.93 33.5133 124.93 34.2781C124.93 35.3853 125.391 35.9389 126.313 35.9389Z" fill="#090909"/>
<path d="M133.28 41.4692C132.95 41.4692 132.717 41.4007 132.58 41.2637C132.455 41.1268 132.392 40.9099 132.392 40.6131V30.8024C132.904 30.4371 133.547 30.1347 134.321 29.895C135.095 29.6553 135.903 29.5354 136.745 29.5354C140.182 29.5354 141.9 30.9965 141.9 33.9185C141.9 35.2426 141.536 36.2985 140.808 37.086C140.079 37.8736 139.049 38.2674 137.718 38.2674C137.342 38.2674 136.978 38.2218 136.626 38.1305C136.284 38.0392 136 37.9136 135.772 37.7538V40.6131C135.772 40.9099 135.704 41.1268 135.567 41.2637C135.431 41.4007 135.197 41.4692 134.867 41.4692H133.28ZM136.984 35.956C137.473 35.956 137.837 35.7734 138.076 35.4081C138.327 35.0315 138.452 34.5292 138.452 33.9014C138.452 33.1595 138.304 32.6401 138.008 32.3434C137.724 32.0352 137.28 31.8811 136.677 31.8811C136.29 31.8811 135.983 31.9324 135.755 32.0352V34.7575C135.755 35.1456 135.863 35.4424 136.079 35.6478C136.296 35.8533 136.597 35.956 136.984 35.956Z" fill="#090909"/>
<path fill-rule="evenodd" clip-rule="evenodd" d="M10.8066 43.0675C7.57286 43.065 4.968 42.2867 3.14796 40.8886C1.30608 39.4738 0.328979 37.4661 0.328979 35.1943C0.328979 33.0053 1.30394 31.4268 2.40711 30.3598C3.27164 29.5237 4.22568 28.9882 4.88998 28.6801C4.73976 28.2177 4.55233 27.6123 4.38465 26.987C4.16027 26.1503 3.94016 25.1686 3.94016 24.4492C3.94016 23.5977 4.12524 22.7426 4.62427 22.0781C5.15152 21.3761 5.94526 21 6.90014 21C7.64642 21 8.28002 21.2777 8.77605 21.7567C9.25019 22.2145 9.56575 22.8226 9.78364 23.4565C10.1665 24.5703 10.3156 25.9696 10.3574 27.366H11.272C11.3139 25.9696 11.4629 24.5703 11.8458 23.4565C12.0637 22.8226 12.3792 22.2145 12.8534 21.7567C13.3494 21.2777 13.983 21 14.7293 21C15.6842 21 16.4779 21.3761 17.0052 22.0781C17.5042 22.7426 17.6893 23.5977 17.6893 24.4492C17.6893 25.1686 17.4692 26.1503 17.2448 26.987C17.0771 27.6123 16.8897 28.2177 16.7395 28.6801C17.4038 28.9882 18.3578 29.5237 19.2223 30.3598C20.3255 31.4268 21.3005 33.0053 21.3005 35.1943C21.3005 37.4661 20.3234 39.4738 18.4815 40.8886C16.6614 42.2867 14.0566 43.065 10.8228 43.0675H10.8066Z" fill="#633001"/>
<path d="M6.90009 21.8098C5.50149 21.8098 4.8577 22.8671 4.8577 24.3292C4.8577 25.4915 5.60574 27.8191 5.91265 28.7251C5.98169 28.9289 5.87322 29.1522 5.67539 29.2313C4.55447 29.6791 1.24652 31.3189 1.24652 35.0743C1.24652 39.0302 4.60815 42.013 10.8073 42.0177C10.8097 42.0177 10.8122 42.0177 10.8147 42.0177C10.8171 42.0177 10.8196 42.0177 10.8221 42.0177C17.0212 42.013 20.3828 39.0302 20.3828 35.0743C20.3828 31.3189 17.0749 29.6791 15.9539 29.2313C15.7561 29.1522 15.6476 28.9289 15.7167 28.7251C16.0236 27.8191 16.7716 25.4915 16.7716 24.3292C16.7716 22.8671 16.1278 21.8098 14.7292 21.8098C12.716 21.8098 12.2142 24.6995 12.1784 27.8008C12.176 28.0079 12.0108 28.1759 11.8065 28.1759H9.82286C9.61851 28.1759 9.45333 28.0079 9.45094 27.8008C9.41515 24.6995 8.91331 21.8098 6.90009 21.8098Z" fill="#D1884F"/>
<path d="M10.8221 40.7507C6.26726 40.7507 1.25439 38.2802 1.24654 35.082C1.24653 35.087 1.24652 35.092 1.24652 35.097C1.24652 39.0561 4.6135 42.0404 10.8221 42.0404C17.0306 42.0404 20.3976 39.0561 20.3976 35.097C20.3976 35.092 20.3976 35.087 20.3976 35.082C20.3897 38.2802 15.3769 40.7507 10.8221 40.7507Z" fill="#FEDC90"/>
<path d="M8.29127 34.0994C8.29127 35.1792 7.78769 35.7415 7.16648 35.7415C6.54527 35.7415 6.04169 35.1792 6.04169 34.0994C6.04169 33.0196 6.54527 32.4573 7.16648 32.4573C7.78769 32.4573 8.29127 33.0196 8.29127 34.0994Z" fill="#633001"/>
<path d="M15.6024 34.0994C15.6024 35.1792 15.0988 35.7415 14.4776 35.7415C13.8564 35.7415 13.3528 35.1792 13.3528 34.0994C13.3528 33.0196 13.8564 32.4573 14.4776 32.4573C15.0988 32.4573 15.6024 33.0196 15.6024 34.0994Z" fill="#633001"/>
</svg>
