<svg xmlns="http://www.w3.org/2000/svg" fill="currentColor" viewBox="0 0 24 24" class="css-1fun6q7"><path d="M21.766 10.858c-1.2 1.462-3.245 3.61-3.847 4.237a.5.5 0 0 0-.135.422c.12.801.503 3.402.696 5.192.1 1.09-.685 1.561-1.576 1.136-1.525-.768-3.77-1.726-4.622-2.124a.543.543 0 0 0-.454-.002c-.862.392-3.132 1.332-4.674 2.097-.9.423-1.695-.049-1.594-1.136.195-1.773.641-4.338.786-5.151a.502.502 0 0 0-.14-.444c-.638-.639-2.76-2.785-3.97-4.239-.507-.625-.18-1.518.82-1.681 1.707-.323 4.203-.806 4.967-.954a.496.496 0 0 0 .343-.252c.4-.736 1.783-3.276 2.712-4.93.85-1.68 1.404-1.027 1.95.003a523.652 523.652 0 0 1 2.68 4.936c.07.132.195.224.342.253.759.15 3.223.633 4.908.956.989.163 1.31 1.053.808 1.681z"/></svg>