<svg xmlns="http://www.w3.org/2000/svg" viewBox="0 0 24 24" fill="none" class="css-vniup"><path fill-rule="evenodd" clip-rule="evenodd" d="M13.8 3h-3.6v2.027c-.66.17-1.285.431-1.858.77L6.91 4.363 4.363 6.91l1.434 1.433a7.157 7.157 0 0 0-.77 1.858H3v3.6h2.027c.17.66.431 1.285.77 1.858L4.363 17.09l2.546 2.546 1.433-1.434c.573.339 1.197.6 1.858.77V21h3.6v-2.027a7.157 7.157 0 0 0 1.858-.77l1.433 1.434 2.546-2.546-1.434-1.434a7.16 7.16 0 0 0 .77-1.857H21v-3.6h-2.027a7.158 7.158 0 0 0-.77-1.858l1.434-1.433-2.546-2.546-1.434 1.434a7.156 7.156 0 0 0-1.857-.77V3zm-4.5 9a2.7 2.7 0 1 1 5.4 0 2.7 2.7 0 0 1-5.4 0z" fill="currentColor"/><svg xmlns="http://www.w3.org/2000/svg" viewBox="0 0 24 24" cursor="pointer" class="css-1vxe7al"><path fill-rule="evenodd" clip-rule="evenodd" d="M12 2c5.523 0 10 4.477 10 10s-4.477 10-10 10S2 17.523 2 12 6.477 2 12 2zm.001 18c.007 0 .03-.002.078-.024.06-.027.164-.089.303-.22.288-.27.638-.755.976-1.506.584-1.297 1.013-3.128 1.118-5.25H9.524c.105 2.122.534 3.953 1.118 5.25.338.75.688 1.236.976 1.507.139.13.243.192.303.22.05.022.072.023.078.023H12zm-3.023-.59c-.804-1.62-1.343-3.876-1.456-6.41h-3.46a8.009 8.009 0 0 0 4.916 6.41zM4.062 11h3.46c.113-2.534.652-4.79 1.456-6.41A8.008 8.008 0 0 0 4.062 11zm7.94-7c.005 0 .027.001.077.024.06.027.164.089.303.22.288.27.638.755.976 1.506.584 1.297 1.013 3.128 1.118 5.25H9.524c.105-2.122.534-3.953 1.118-5.25.338-.75.688-1.236.976-1.507.139-.13.243-.192.303-.22a.2.2 0 0 1 .08-.023zm7.936 9a8.008 8.008 0 0 1-4.916 6.41c.804-1.62 1.343-3.876 1.456-6.41h3.46zm0-2a8.008 8.008 0 0 0-4.916-6.41c.804 1.62 1.343 3.876 1.456 6.41h3.46z" fill="currentColor"/></svg></svg>