<svg xmlns="http://www.w3.org/2000/svg" viewBox="0 0 24 24" fill="none" class="css-vniup"><path fill-rule="evenodd" clip-rule="evenodd" d="M13.8 3h-3.6v2.027c-.66.17-1.285.431-1.858.77L6.91 4.363 4.363 6.91l1.434 1.433a7.157 7.157 0 0 0-.77 1.858H3v3.6h2.027c.17.66.431 1.285.77 1.858L4.363 17.09l2.546 2.546 1.433-1.434c.573.339 1.197.6 1.858.77V21h3.6v-2.027a7.157 7.157 0 0 0 1.858-.77l1.433 1.434 2.546-2.546-1.434-1.434a7.16 7.16 0 0 0 .77-1.857H21v-3.6h-2.027a7.158 7.158 0 0 0-.77-1.858l1.434-1.433-2.546-2.546-1.434 1.434a7.156 7.156 0 0 0-1.857-.77V3zm-4.5 9a2.7 2.7 0 1 1 5.4 0 2.7 2.7 0 0 1-5.4 0z" fill="currentColor"/></svg>