<svg xmlns="http://www.w3.org/2000/svg" viewBox="0 0 24 24" fill="none" cursor="pointer" class="css-1vxe7al"><path fill-rule="evenodd" clip-rule="evenodd" d="M12 2c5.523 0 10 4.477 10 10s-4.477 10-10 10S2 17.523 2 12 6.477 2 12 2zm.001 18c.007 0 .03-.002.078-.024.06-.027.164-.089.303-.22.288-.27.638-.755.976-1.506.584-1.297 1.013-3.128 1.118-5.25H9.524c.105 2.122.534 3.953 1.118 5.25.338.75.688 1.236.976 1.507.139.13.243.192.303.22.05.022.072.023.078.023H12zm-3.023-.59c-.804-1.62-1.343-3.876-1.456-6.41h-3.46a8.009 8.009 0 0 0 4.916 6.41zM4.062 11h3.46c.113-2.534.652-4.79 1.456-6.41A8.008 8.008 0 0 0 4.062 11zm7.94-7c.005 0 .027.001.077.024.06.027.164.089.303.22.288.27.638.755.976 1.506.584 1.297 1.013 3.128 1.118 5.25H9.524c.105-2.122.534-3.953 1.118-5.25.338-.75.688-1.236.976-1.507.139-.13.243-.192.303-.22a.2.2 0 0 1 .08-.023zm7.936 9a8.008 8.008 0 0 1-4.916 6.41c.804-1.62 1.343-3.876 1.456-6.41h3.46zm0-2a8.008 8.008 0 0 0-4.916-6.41c.804 1.62 1.343 3.876 1.456 6.41h3.46z" fill="currentColor"/></svg>