<svg viewBox="0 0 96 96" width="16" color="text" xmlns="http://www.w3.org/2000/svg" class="sc-4ba21b47-0 hiUWYl">
  <circle cx="48" cy="48" r="48" fill="#F0B90B"/>
  <path d="m30.9 25.9 16.9-9.84 16.92 9.85-6.22 3.63-10.7-6.2-10.68 6.2-6.22-3.63Zm33.82 12.42-6.22-3.64-10.7 6.2-10.68-6.2-6.22 3.64v7.27l10.7 6.2v12.42l6.2 3.63 6.23-3.63V51.8l10.69-6.21v-7.27Zm0 19.68v-7.27l-6.22 3.64v7.27L64.72 58Zm4.41 2.57-10.7 6.2v7.28l16.92-9.84V44.52l-6.22 3.64v12.41Zm-6.22-28.46 6.22 3.64v7.27l6.22-3.64v-7.27l-6.22-3.63-6.22 3.63ZM41.6 69.41v7.27l6.22 3.64 6.22-3.64v-7.27l-6.22 3.64-6.22-3.64Zm-10.7-11.4 6.22 3.63v-7.27l-6.22-3.64V58Zm10.7-25.9 6.2 3.64 6.23-3.64-6.22-3.63-6.22 3.63Zm-15.11 3.64 6.21-3.64-6.21-3.63-6.22 3.63v7.27l6.22 3.64v-7.27Zm0 12.41-6.22-3.64v19.69l16.9 9.84v-7.27l-10.68-6.2V48.15Z" fill="#fff"/>
</svg>
