<svg viewBox="0 0 32 32"  class="sc-4ba21b47-0 IIbzK sc-12e2cde0-3 jDfhPI" color="text" width="20px" xmlns="http://www.w3.org/2000/svg"><path d="M32 16c0 8.837-7.163 16-16 16S0 24.837 0 16 7.163 0 16 0s16 7.163 16 16z" fill="#e9eaeb"></path><mask id="A" mask-type="alpha" maskUnits="userSpaceOnUse" x="0" y="0" width="32" height="32"><path d="M32 16c0 8.837-7.163 16-16 16S0 24.837 0 16 7.163 0 16 0s16 7.163 16 16z" fill="#c4c4c4"></path></mask><g mask="url(#A)"><path d="M25.128 16.436c0 3.115-4.133 5.641-9.231 5.641s-9.231-2.526-9.231-5.641V15h18.461v1.436zm2.205 13.806c0-3.815-5.074-6.908-11.333-6.908S4.667 26.426 4.667 30.242V32h22.667v-1.759z" fill="#bdc2c4"></path><path fill-rule="evenodd" d="M10.234 5.601C9.942 4.264 10.96 3 12.328 3c1.184 0 2.143.959 2.143 2.143v3.873l1.427-.067c.589 0 1.166.034 1.724.098V5.143c0-1.184.959-2.143 2.143-2.143 1.368 0 2.386 1.264 2.093 2.601l-.931 4.258c2.529 1.006 4.201 2.749 4.201 4.731 0 3.115-4.133 5.641-9.231 5.641s-9.231-2.526-9.231-5.641c0-2.053 1.794-3.849 4.476-4.836l-.908-4.153z" fill="#bdc2c4"></path><ellipse cx="12.308" cy="14.846" rx="1.026" ry="1.538" fill="#e9eaeb"></ellipse><ellipse cx="19.385" cy="14.846" rx="1.026" ry="1.538" fill="#e9eaeb"></ellipse></g></svg>