<svg viewBox="0 0 296 121" color="text" xmlns="http://www.w3.org/2000/svg" class="sc-4ba21b47-0 IIbzK"><g filter="url(#a)"><path d="M4 16C4 7.163 11.163 0 20 0h46v113H20c-8.837 0-16-7.163-16-16V16Z" fill="#A881FC"/><path fill-rule="evenodd" clip-rule="evenodd" d="M69.493 2.946C68.951 1.38 67.657 0 66 0v10h24V0c-1.657 0-2.951 1.38-3.493 2.946a9.004 9.004 0 0 1-17.014 0Z" fill="#A881FC"/><path fill="#A881FC" d="M66 10h10v93H66z"/><path d="M78 103V10" stroke="#A881FC" stroke-width="4" stroke-dasharray="4 4"/><path fill="#A881FC" d="M80 10h10v93H80z"/><path fill-rule="evenodd" clip-rule="evenodd" d="M69.493 110.054C68.951 111.62 67.657 113 66 113v-10h24v10c-1.657 0-2.951-1.38-3.493-2.946a9.004 9.004 0 0 0-17.014 0Z" fill="#A881FC"/><path d="M90 0h186c8.837 0 16 7.163 16 16v81c0 8.837-7.163 16-16 16H90V0Z" fill="#A881FC"/></g><defs><filter id="a" x="0" y="0" width="296" height="121" filterUnits="userSpaceOnUse" color-interpolation-filters="sRGB"><feFlood flood-opacity="0" result="BackgroundImageFix"/><feColorMatrix in="SourceAlpha" values="0 0 0 0 0 0 0 0 0 0 0 0 0 0 0 0 0 0 127 0" result="hardAlpha"/><feOffset dx="2" dy="2"/><feColorMatrix values="0 0 0 0 0.637669 0 0 0 0 0.458333 0 0 0 0 1 0 0 0 1 0"/><feBlend in2="BackgroundImageFix" result="effect1_dropShadow_ticket_purchase_card"/><feColorMatrix in="SourceAlpha" values="0 0 0 0 0 0 0 0 0 0 0 0 0 0 0 0 0 0 127 0" result="hardAlpha"/><feOffset dy="4"/><feGaussianBlur stdDeviation="2"/><feColorMatrix values="0 0 0 0 0 0 0 0 0 0 0 0 0 0 0 0 0 0 0.25 0"/><feBlend in2="effect1_dropShadow_ticket_purchase_card" result="effect2_dropShadow_ticket_purchase_card"/><feBlend in="SourceGraphic" in2="effect2_dropShadow_ticket_purchase_card" result="shape"/></filter></defs></svg>