<svg viewBox="0 0 24 24" width="36" color="inverseContrast" xmlns="http://www.w3.org/2000/svg" class="sc-8a800401-0 kIyxFf"><path d="M3.187 5.684c-.737-.158-.737-1.21 0-1.368l2.133-.458a.7.7 0 0 0 .538-.538l.458-2.133c.158-.737 1.21-.737 1.369 0l.458 2.133a.7.7 0 0 0 .537.538l2.133.458c.737.158.737 1.21 0 1.368l-2.133.458a.7.7 0 0 0-.537.538l-.458 2.133c-.159.737-1.21.737-1.37 0L5.859 6.68a.7.7 0 0 0-.538-.538l-2.133-.458Z"/><path fill-rule="evenodd" clip-rule="evenodd" d="M12 3a7 7 0 1 1-7 7 1 1 0 0 0-2 0c0 2.89 1.362 5.46 3.478 7.108L5.586 18A2 2 0 0 0 5 19.414V21.5A1.5 1.5 0 0 0 6.5 23h11a1.5 1.5 0 0 0 1.5-1.5v-2.086A2 2 0 0 0 18.414 18l-.892-.892A9 9 0 0 0 12 1a1 1 0 1 0 0 2Zm0 16a8.966 8.966 0 0 1-3.764-.822L7 19.414V21h10v-1.586l-1.236-1.236A8.966 8.966 0 0 1 12 19Z"/></svg>