<svg viewBox="0 0 72 72" width="80" height="80" color="text" xmlns="http://www.w3.org/2000/svg" class="sc-4ba21b47-0 IIbzK">
  <path d="M72 36a36 36 0 1 1-72 0 36 36 0 0 1 72 0Z" fill="#e9eaeb"/>
  <mask id="a" mask-type="alpha" maskUnits="userSpaceOnUse" x="3" y="3" width="66" height="66">
    <path d="M68.25 36a32.25 32.25 0 1 1-64.5 0 32.25 32.25 0 0 1 64.5 0Z" fill="#C4C4C4"/>
  </mask>
  <g mask="url(#a)">
    <path fill-rule="evenodd" clip-rule="evenodd" d="M21 23.27a8.12 8.12 0 0 1 8.2 9.52l-1.52 8.75a42.36 42.36 0 0 1 13.83-.37l7.78-11.6a8.08 8.08 0 1 1 12.3 10.33l-6.33 6.08c4.64 3.02 7.87 7.32 7.87 12.43v3.91c0 5.32-3.52 9.78-8.44 12.79-4.96 3.03-11.67 4.83-18.97 4.83-7.3 0-14-1.8-18.96-4.83-4.92-3.01-8.44-7.47-8.44-12.79v-3.91c0-3.98 1.98-7.5 5.02-10.25L13 31.62a8.2 8.2 0 0 1 7.98-8.35Zm-5.38 25.88a4.35 4.35 0 0 1-.03-.43l-.34-17.15a5.96 5.96 0 0 1 5.8-6.07A5.89 5.89 0 0 1 27 32.4l-2.1 12.12a39.82 39.82 0 0 1 10.83-1.5c2.43 0 4.8.22 7.02.61.12-.37.3-.73.52-1.07l7.87-11.74a5.84 5.84 0 1 1 8.9 7.47l-8.5 8.15c.72.36 1.4.74 2.06 1.14 4.5 2.78 7.3 6.6 7.3 10.83v3.91c0 8.5-11.28 15.38-25.18 15.38s-25.17-6.88-25.17-15.38v-3.91c0-3.48 1.89-6.68 5.07-9.26Z" fill="#bdc2c4"/>
    <path d="M60.9 62.32c0 8.5-11.28 15.38-25.18 15.38s-25.17-6.88-25.17-15.38v-3.91H60.9v3.91Z" fill="#e9eaeb"/>
    <path fill-rule="evenodd" clip-rule="evenodd" d="M27 32.4c.64-3.67-2.23-7-5.95-6.9a5.96 5.96 0 0 0-5.8 6.07l.34 17.15c0 .15.01.3.03.43-3.18 2.58-5.07 5.78-5.07 9.26 0 8.5 11.27 15.38 25.17 15.38 13.9 0 25.17-6.89 25.17-15.38 0-4.83-3.64-9.15-9.34-11.97l8.5-8.15a5.84 5.84 0 1 0-8.9-7.47l-7.88 11.74c-.22.34-.4.7-.52 1.07a40.32 40.32 0 0 0-17.85.89L27 32.4Z" fill="#e9eaeb"/>
    <path d="M32.09 57.29c0 2.31-1.25 4.2-2.8 4.2-1.54 0-2.8-1.89-2.8-4.2 0-2.32 1.26-4.2 2.8-4.2 1.55 0 2.8 1.88 2.8 4.2Z" fill="#bdc2c4"/>
    <path fill-rule="evenodd" clip-rule="evenodd" d="M28.9 54.04c.56.85.95 2.1.95 3.53a1.12 1.12 0 0 0 2.24 0 8.7 8.7 0 0 0-1.34-4.78c-.84-1.26-2.13-2.21-3.7-2.21-1.57 0-2.85.95-3.7 2.21a8.68 8.68 0 0 0-1.33 4.78c0 .98.14 1.92.4 2.78a1.12 1.12 0 1 0 2.14-.66 7.27 7.27 0 0 1 .66-5.65c.57-.87 1.24-1.23 1.83-1.23.6 0 1.27.36 1.84 1.23Zm19.29 0c.57.85.96 2.1.96 3.53a1.12 1.12 0 1 0 2.23 0 8.7 8.7 0 0 0-1.33-4.78c-.84-1.26-2.13-2.21-3.7-2.21-1.57 0-2.86.95-3.7 2.21a8.68 8.68 0 0 0-1.33 4.78c0 .98.14 1.92.4 2.78a1.12 1.12 0 0 0 2.14-.66 7.27 7.27 0 0 1 .65-5.65c.58-.87 1.25-1.23 1.84-1.23.6 0 1.26.36 1.84 1.23Z" fill="#bdc2c4"/>
    <path d="M51.38 57.29c0 2.31-1.25 4.2-2.8 4.2-1.54 0-2.79-1.89-2.79-4.2 0-2.32 1.25-4.2 2.8-4.2 1.54 0 2.8 1.88 2.8 4.2ZM34.02 25.95v-.68c0-.95.2-1.75.57-2.39.4-.64.94-1.27 1.6-1.88.62-.6 1.23-1.1 1.82-1.54.6-.42 1.08-.87 1.46-1.35a2.6 2.6 0 0 0 .57-1.67c0-.93-.33-1.58-1-1.96-.64-.4-1.72-.6-3.24-.6-1 0-1.98.12-2.95.39-.98.23-1.8.54-2.5.92v-4.8a13.9 13.9 0 0 1 3.1-1.04c1.21-.26 2.53-.4 3.96-.4 2.75 0 4.85.61 6.3 1.83a6 6 0 0 1 2.17 4.91 5.8 5.8 0 0 1-.82 3.24 12.1 12.1 0 0 1-2.38 2.5 64.5 64.5 0 0 0-2.21 1.92 2.7 2.7 0 0 0-.9 2.13v.47h-5.55Zm-.25 6.3v-4.13h6.02v4.13h-6.02Z" fill="#bdc2c4"/>
  </g>
  <path fill-rule="evenodd" clip-rule="evenodd" d="m71.98 37.09-2.25-.07a34.43 34.43 0 0 0 0-2.04l2.25-.07a36.55 36.55 0 0 1 0 2.18Zm-.13-4.35-2.24.2c-.06-.68-.14-1.35-.24-2.02l2.22-.34c.11.71.2 1.43.26 2.16Zm-.64-4.3-2.2.47c-.15-.67-.31-1.33-.5-1.98l2.18-.6c.19.7.36 1.4.52 2.11Zm-1.17-4.19-2.13.74c-.22-.65-.46-1.28-.72-1.9l2.08-.87c.28.67.53 1.35.77 2.03Zm-1.67-4.01-2.02.98c-.3-.6-.61-1.21-.95-1.8l1.96-1.1c.36.62.7 1.26 1.01 1.92Zm-2.13-3.79-1.9 1.23A33.9 33.9 0 0 0 63.2 16l1.8-1.34c.44.59.85 1.18 1.25 1.8Zm-2.58-3.5-1.73 1.44a39.5 39.5 0 0 0-1.35-1.52l1.63-1.55c.5.53.98 1.08 1.45 1.63ZM60.68 9.8l-1.55 1.63c-.5-.46-1-.91-1.52-1.35l1.44-1.73c.55.47 1.1.95 1.63 1.45ZM57.34 7 56 8.81c-.54-.4-1.1-.79-1.68-1.16l1.23-1.89c.6.4 1.2.81 1.79 1.24Zm-3.65-2.36-1.1 1.96c-.6-.34-1.2-.65-1.81-.95l.98-2.02c.66.31 1.3.65 1.93 1Zm-3.91-1.9-.86 2.07c-.63-.26-1.26-.5-1.9-.72l.73-2.13c.68.24 1.36.5 2.03.77Zm-4.1-1.43-.61 2.17A33.5 33.5 0 0 0 43.09 3l.47-2.2c.71.15 1.42.32 2.11.51Zm-4.26-.9-.34 2.22a33.8 33.8 0 0 0-2.02-.24l.2-2.24c.73.06 1.45.15 2.16.26ZM37.09 0a36.67 36.67 0 0 0-2.18 0l.07 2.26a34.43 34.43 0 0 1 2.04 0L37.1.02Zm-4.35.14.2 2.24c-.68.06-1.35.14-2.02.24L30.58.41C31.3.3 32.01.2 32.74.15Zm-4.3.64.47 2.2c-.67.15-1.33.31-1.98.5l-.6-2.18c.7-.19 1.4-.36 2.11-.52Zm-4.19 1.17L25 4.09c-.65.22-1.28.46-1.9.72l-.87-2.08c.67-.28 1.35-.53 2.03-.77Zm-4.01 1.67.98 2.02c-.6.3-1.21.61-1.8.95l-1.1-1.96c.62-.36 1.26-.7 1.92-1.01Zm-3.79 2.13 1.23 1.9c-.58.36-1.14.75-1.68 1.15L14.66 7c.59-.44 1.18-.85 1.8-1.25Zm-3.5 2.58 1.44 1.73c-.52.44-1.03.89-1.52 1.35L11.32 9.8c.53-.5 1.08-.98 1.63-1.45ZM9.8 11.32l1.63 1.55c-.46.5-.91 1-1.35 1.52l-1.73-1.44c.47-.55.95-1.1 1.45-1.63ZM7 14.66 8.81 16c-.4.54-.79 1.1-1.16 1.68l-1.89-1.23c.4-.6.81-1.2 1.24-1.79Zm-2.36 3.65 1.96 1.1c-.34.6-.65 1.2-.95 1.81l-2.02-.98c.31-.66.65-1.3 1-1.93Zm-1.9 3.91 2.07.86c-.26.63-.5 1.26-.72 1.9l-2.13-.73c.24-.68.5-1.36.77-2.03Zm-1.43 4.1 2.17.61A33.5 33.5 0 0 0 3 28.91l-2.2-.47c.15-.71.32-1.42.51-2.11Zm-.9 4.26 2.22.34c-.1.67-.18 1.34-.24 2.02l-2.24-.2c.06-.73.15-1.45.26-2.16ZM0 34.91a36.67 36.67 0 0 0 0 2.18l2.26-.07a34.43 34.43 0 0 1 0-2.04L.02 34.9Zm.14 4.35 2.24-.2c.06.68.14 1.35.24 2.02l-2.22.34c-.1-.72-.2-1.43-.25-2.16Zm.64 4.3 2.2-.47c.15.67.31 1.33.5 1.98l-2.18.6c-.19-.7-.36-1.4-.52-2.11Zm1.17 4.19L4.09 47c.22.65.46 1.28.72 1.9l-2.08.87c-.28-.67-.53-1.35-.77-2.03Zm1.67 4.01 2.02-.98c.3.6.61 1.21.95 1.8l-1.96 1.1c-.36-.62-.7-1.26-1.01-1.92Zm2.13 3.79 1.9-1.23c.36.58.75 1.14 1.15 1.68L7 57.34a36.1 36.1 0 0 1-1.25-1.8Zm2.58 3.5 1.73-1.44c.44.52.89 1.03 1.35 1.52L9.8 60.68c-.5-.53-.98-1.08-1.45-1.63Zm2.98 3.16 1.55-1.63c.5.46 1 .91 1.52 1.35l-1.44 1.73c-.55-.47-1.1-.95-1.63-1.45ZM14.66 65 16 63.19c.54.4 1.1.79 1.68 1.16l-1.23 1.89c-.6-.4-1.2-.81-1.79-1.24Zm3.65 2.36 1.1-1.96c.6.34 1.2.65 1.81.95l-.98 2.02a35.8 35.8 0 0 1-1.93-1Zm3.91 1.9.86-2.07c.63.26 1.26.5 1.9.72l-.73 2.13c-.68-.24-1.36-.5-2.03-.77Zm4.1 1.43.61-2.17c.65.18 1.31.34 1.98.48l-.47 2.2a35.7 35.7 0 0 1-2.11-.51Zm4.26.9.34-2.22c.67.1 1.34.18 2.02.24l-.2 2.24a37.5 37.5 0 0 1-2.16-.25Zm4.33.4.07-2.26a34.43 34.43 0 0 0 2.04 0l.07 2.25a36.55 36.55 0 0 1-2.18 0Zm4.35-.14-.2-2.24c.68-.06 1.35-.14 2.02-.24l.34 2.22c-.71.11-1.43.2-2.16.26Zm4.3-.64-.47-2.2c.67-.15 1.33-.31 1.98-.5l.6 2.18c-.7.19-1.4.36-2.11.52Zm4.19-1.17L47 67.91c.65-.22 1.28-.46 1.9-.72l.87 2.08c-.67.28-1.35.53-2.03.77Zm4.01-1.67-.98-2.02c.6-.3 1.21-.61 1.8-.95l1.1 1.96c-.62.36-1.26.7-1.92 1.01Zm3.79-2.13-1.23-1.9A33.9 33.9 0 0 0 56 63.2l1.34 1.8c-.59.44-1.18.85-1.8 1.25Zm3.5-2.58-1.44-1.73a39.5 39.5 0 0 0 1.52-1.35l1.55 1.63c-.53.5-1.08.98-1.63 1.45Zm3.16-2.98-1.63-1.55c.46-.5.91-1 1.35-1.52l1.73 1.44c-.47.55-.95 1.1-1.45 1.63ZM65 57.34 63.19 56c.4-.54.79-1.1 1.16-1.68l1.89 1.23c-.4.6-.81 1.2-1.24 1.79Zm2.36-3.65-1.96-1.1c.34-.6.65-1.2.95-1.81l2.02.98c-.31.66-.65 1.3-1 1.93Zm1.9-3.91-2.07-.86c.26-.63.5-1.26.72-1.9l2.13.73c-.24.68-.5 1.36-.77 2.03Zm1.43-4.1-2.17-.61c.18-.65.34-1.31.48-1.98l2.2.47a35.7 35.7 0 0 1-.51 2.11Zm.9-4.26-2.22-.34c.1-.67.18-1.34.24-2.02l2.24.2a37.5 37.5 0 0 1-.25 2.16Z" fill="#bdc2c4"/>
</svg>
