<svg viewBox="0 0 1281 199" class="sc-4ba21b47-0 IIbzK desktop-icon" color="text" width="20" xmlns="http://www.w3.org/2000/svg">
  <path fill="var(--colors-contrast)" d="M247.01 153.1c-2.98 0-5.08-.62-6.31-1.85-1.13-1.24-1.7-3.19-1.7-5.86V56.17c0-2.67.62-4.62 1.85-5.85 1.23-1.34 3.29-2 6.16-2h37.76c14.38 0 24.96 3.02 31.74 9.08 6.78 6.06 10.17 15.1 10.17 27.12 0 11.92-3.39 20.9-10.17 26.97-6.68 5.96-17.26 8.94-31.74 8.94h-14.64v24.96c0 2.67-.62 4.62-1.85 5.86-1.24 1.23-3.34 1.85-6.32 1.85h-14.95zm35.3-55.02c4.2 0 7.44-1.13 9.7-3.39 2.36-2.26 3.54-5.65 3.54-10.17 0-4.62-1.18-8.06-3.54-10.32-2.26-2.26-5.5-3.4-9.7-3.4h-12.18v27.28h12.17zm80.76 57.33c-9.65 0-17.41-3.08-23.27-9.25-5.75-6.26-8.63-15.05-8.63-26.35 0-8.63 1.96-16.18 5.86-22.65a39.6 39.6 0 0 1 16.8-14.95c7.29-3.6 15.66-5.4 25.11-5.4 7.81 0 14.7.88 20.65 2.63a60.54 60.54 0 0 1 16.64 7.24v61.64c0 1.95-.35 3.24-1.07 3.85-.72.62-2.16.93-4.32.93h-15.72c-1.13 0-2-.16-2.62-.47a4.64 4.64 0 0 1-1.54-1.85l-2-4.62a26.06 26.06 0 0 1-10.79 6.94c-4.1 1.54-9.14 2.3-15.1 2.3zm11.56-20.96c4 0 7.14-.98 9.4-2.93 2.26-1.95 3.39-4.72 3.39-8.32V99.16c-1.95-.92-4.42-1.38-7.4-1.38-5.44 0-9.8 1.9-13.1 5.7-3.18 3.8-4.77 9.14-4.77 16.02 0 9.97 4.16 14.95 12.48 14.95zm63.05 18.65c-2.98 0-5.09-.62-6.32-1.85-1.23-1.24-1.85-3.19-1.85-5.86V83.91c0-1.85.31-3.08.93-3.7.71-.72 2.15-1.08 4.31-1.08h15.87a5 5 0 0 1 2.78.62c.72.3 1.13.92 1.23 1.85l.77 4.62c2.88-2.88 6.63-5.14 11.25-6.78a45.04 45.04 0 0 1 15.72-2.62c8.32 0 15.05 2.36 20.18 7.09 5.14 4.62 7.7 11.5 7.7 20.65v40.83c0 2.67-.6 4.62-1.84 5.86-1.13 1.23-3.19 1.85-6.17 1.85H487.3c-2.98 0-5.14-.62-6.47-1.85-1.24-1.24-1.85-3.19-1.85-5.86v-38.83c0-3.08-.67-5.3-2-6.63-1.34-1.33-3.45-2-6.32-2-3.09 0-5.55.82-7.4 2.47-1.75 1.64-2.62 3.9-2.62 6.78v38.21c0 2.67-.62 4.62-1.85 5.86-1.13 1.23-3.18 1.85-6.16 1.85h-14.95zm127.05 2.3c-14.39 0-25.48-3.33-33.29-10-7.8-6.69-11.71-16.4-11.71-29.13 0-7.81 1.8-14.7 5.4-20.65 3.59-5.96 8.78-10.58 15.56-13.87 6.88-3.29 15-4.93 24.34-4.93 7.1 0 13.05.67 17.88 2A39.5 39.5 0 0 1 596 85c1.13.72 1.7 1.64 1.7 2.77 0 .82-.42 1.9-1.24 3.24l-6.32 10.94c-.72 1.44-1.6 2.15-2.62 2.15-.62 0-1.6-.4-2.93-1.23a36.79 36.79 0 0 0-7.86-3.85c-2.36-.82-5.34-1.23-8.93-1.23-5.14 0-9.3 1.64-12.48 4.93-3.09 3.28-4.63 7.8-4.63 13.56 0 5.85 1.6 10.37 4.78 13.56 3.18 3.08 7.55 4.62 13.1 4.62 3.28 0 6.26-.46 8.93-1.39 2.68-.92 5.4-2.2 8.17-3.85 1.44-.82 2.47-1.23 3.08-1.23.93 0 1.75.72 2.47 2.16l6.93 11.86c.52 1.03.77 1.85.77 2.47 0 .92-.61 1.8-1.84 2.62a48.7 48.7 0 0 1-14.18 6.16c-5.04 1.44-11.1 2.16-18.19 2.16zm73.27 0c-9.65 0-17.4-3.07-23.26-9.24-5.76-6.26-8.63-15.05-8.63-26.35 0-8.63 1.95-16.18 5.85-22.65a39.6 39.6 0 0 1 16.8-14.95c7.3-3.6 15.67-5.4 25.12-5.4 7.8 0 14.69.88 20.64 2.63a60.54 60.54 0 0 1 16.65 7.24v61.64c0 1.95-.36 3.24-1.08 3.85-.72.62-2.16.93-4.32.93h-15.71c-1.13 0-2-.16-2.62-.47a4.65 4.65 0 0 1-1.54-1.85l-2-4.62a26.07 26.07 0 0 1-10.8 6.94c-4.1 1.54-9.14 2.3-15.1 2.3zm11.56-20.95c4 0 7.14-.98 9.4-2.93 2.26-1.95 3.4-4.72 3.4-8.32V99.16c-1.96-.92-4.43-1.38-7.4-1.38-5.45 0-9.82 1.9-13.1 5.7-3.19 3.8-4.78 9.14-4.78 16.02 0 9.97 4.16 14.95 12.48 14.95zm138.4 12.79a4.1 4.1 0 0 1 1.08 2.77c0 .93-.3 1.7-.92 2.32-.62.5-1.44.77-2.47.77h-23.88c-1.44 0-2.52-.1-3.24-.31a7.04 7.04 0 0 1-2-1.7l-20.96-28.5v22.8c0 2.67-.62 4.62-1.85 5.86-1.23 1.23-3.34 1.85-6.32 1.85h-14.94c-2.98 0-5.09-.62-6.32-1.85-1.13-1.24-1.7-3.19-1.7-5.86V56.17c0-2.67.62-4.62 1.85-5.85 1.24-1.34 3.3-2 6.17-2h14.94c2.98 0 5.09.66 6.32 2 1.23 1.23 1.85 3.18 1.85 5.85v51.62l20.34-26.5a5.06 5.06 0 0 1 2-1.7c.72-.3 1.8-.46 3.24-.46h23.89c1.02 0 1.8.3 2.3.93.62.5.93 1.23.93 2.15A4.1 4.1 0 0 1 787.2 85l-26.35 30.2 27.12 32.05zm50.04 8.17c-8.63 0-16.34-1.44-23.12-4.32a35.87 35.87 0 0 1-15.87-12.94c-3.9-5.75-5.85-12.8-5.85-21.11 0-13.05 3.7-23.01 11.1-29.9 7.39-6.88 18.02-10.32 31.89-10.32 13.56 0 23.83 3.39 30.82 10.17 7.09 6.68 10.63 15.97 10.63 27.89 0 5.14-2.26 7.7-6.78 7.7h-48.38c0 4.42 1.64 7.81 4.93 10.18 3.39 2.36 8.47 3.54 15.25 3.54 4.21 0 7.7-.36 10.48-1.08 2.88-.82 5.75-2 8.63-3.54a8.46 8.46 0 0 1 2.46-.77c.93 0 1.7.61 2.32 1.85l5.24 9.86c.5 1.03.77 1.8.77 2.3 0 .93-.62 1.8-1.85 2.63a43.64 43.64 0 0 1-14.33 6 81.96 81.96 0 0 1-18.34 1.86zm11.86-48.08c0-3.9-1.13-6.93-3.39-9.1-2.26-2.15-5.65-3.23-10.17-3.23s-7.96 1.13-10.32 3.4c-2.36 2.15-3.54 5.13-3.54 8.93h27.42zm80.56 48.08c-8.63 0-16.8-.88-24.5-2.62-7.7-1.85-13.92-4.42-18.65-7.7-1.75-1.14-2.62-2.32-2.62-3.55 0-.82.3-1.7.93-2.62l7.55-12.02c.82-1.23 1.64-1.85 2.46-1.85.52 0 1.39.36 2.62 1.08 3.8 2.16 8.12 3.9 12.95 5.24 4.82 1.33 9.6 2 14.33 2 4.82 0 8.37-.72 10.63-2.16 2.36-1.43 3.54-3.75 3.54-6.93a8.3 8.3 0 0 0-3.85-7.24c-2.47-1.75-7.14-3.96-14.02-6.63-10.38-3.9-18.5-8.27-24.35-13.1-5.75-4.93-8.63-11.6-8.63-20.03 0-10.17 3.65-17.93 10.94-23.27 7.3-5.34 17-8.01 29.13-8.01 8.42 0 15.61.77 21.57 2.31 6.06 1.44 11.2 3.7 15.4 6.78 1.75 1.34 2.63 2.57 2.63 3.7 0 .72-.31 1.54-.93 2.46L960 73.27c-.92 1.24-1.74 1.85-2.46 1.85-.52 0-1.39-.36-2.62-1.08-5.96-3.9-13.05-5.85-21.27-5.85-4.41 0-7.8.72-10.17 2.16-2.36 1.43-3.54 3.8-3.54 7.08a8.2 8.2 0 0 0 1.85 5.55 17.53 17.53 0 0 0 4.93 3.85c2.16 1.03 5.44 2.37 9.86 4.01l2.93 1.08c7.6 2.98 13.56 5.86 17.87 8.63a27.5 27.5 0 0 1 10.02 10.02c2.26 3.9 3.39 8.83 3.39 14.79 0 9.14-3.44 16.44-10.32 21.88-6.78 5.45-16.8 8.17-30.05 8.17zm73.11-2.31a6.73 6.73 0 0 1-3.54-.77c-.83-.52-1.44-1.55-1.85-3.09l-19.88-66.57a4.9 4.9 0 0 1-.31-1.38c0-1.44 1.03-2.16 3.08-2.16h20.34c1.34 0 2.31.26 2.93.77.62.41 1.03 1.13 1.23 2.16l8.32 34.98 10.48-28.2a6.47 6.47 0 0 1 1.54-2.47c.62-.51 1.65-.77 3.09-.77h9.7c1.44 0 2.42.26 2.93.77.62.41 1.18 1.24 1.7 2.47l10.32 28.2 8.48-34.98c.3-1.03.71-1.75 1.23-2.16.51-.51 1.44-.77 2.77-.77h20.5c2.05 0 3.08.72 3.08 2.16 0 .3-.1.77-.31 1.38l-20.03 66.57c-.41 1.54-1.03 2.57-1.85 3.09-.72.5-1.85.77-3.39.77h-15.1c-1.44 0-2.52-.26-3.24-.77a7.24 7.24 0 0 1-1.85-3.09l-10.17-27.89-10.17 27.9a5.65 5.65 0 0 1-1.85 3.08c-.72.5-1.79.77-3.23.77h-14.95zm125.2 2.3c-9.66 0-17.41-3.07-23.27-9.24-5.75-6.26-8.63-15.05-8.63-26.35 0-8.63 1.95-16.18 5.86-22.65 4-6.47 9.6-11.45 16.79-14.95 7.3-3.6 15.67-5.4 25.12-5.4 7.81 0 14.69.88 20.65 2.63a60.49 60.49 0 0 1 16.64 7.24v61.64c0 1.95-.36 3.24-1.08 3.85-.72.62-2.15.93-4.31.93h-15.72c-1.13 0-2-.16-2.62-.47a4.6 4.6 0 0 1-1.54-1.85l-2-4.62a26.1 26.1 0 0 1-10.79 6.94c-4.11 1.54-9.14 2.3-15.1 2.3zm11.56-20.95c4 0 7.14-.98 9.4-2.93 2.26-1.95 3.39-4.72 3.39-8.32V99.16c-1.96-.92-4.42-1.38-7.4-1.38-5.45 0-9.81 1.9-13.1 5.7-3.18 3.8-4.78 9.14-4.78 16.02 0 9.97 4.17 14.95 12.49 14.95zm62.89 49.77c-2.98 0-5.08-.61-6.32-1.85-1.13-1.23-1.69-3.18-1.69-5.85v-88.3c4.62-3.29 10.43-6 17.41-8.17a73.76 73.76 0 0 1 21.88-3.23c31.03 0 46.54 13.15 46.54 39.45 0 11.91-3.29 21.42-9.86 28.5-6.58 7.1-15.87 10.64-27.89 10.64a39.4 39.4 0 0 1-9.87-1.24 24.15 24.15 0 0 1-7.7-3.39v25.74c0 2.67-.62 4.62-1.85 5.85-1.23 1.24-3.34 1.85-6.32 1.85h-14.33zm33.44-49.62c4.42 0 7.71-1.64 9.86-4.93 2.26-3.39 3.39-7.9 3.39-13.56 0-6.67-1.33-11.35-4-14.02-2.57-2.77-6.58-4.16-12.02-4.16-3.5 0-6.27.46-8.32 1.39v24.5c0 3.5.97 6.16 2.92 8.01 1.96 1.85 4.68 2.77 8.17 2.77z"/>
  <path fill-rule="evenodd" clip-rule="evenodd" d="M97.56 198.6c-29.2-.01-52.71-7.02-69.14-19.6-16.63-12.74-25.45-30.8-25.45-51.25 0-19.7 8.8-33.9 18.76-43.51a82.65 82.65 0 0 1 22.41-15.12 312 312 0 0 1-4.56-15.24c-2.02-7.53-4.01-16.36-4.01-22.84 0-7.66 1.67-15.36 6.17-21.34C46.51 3.4 53.67 0 62.3 0a23.8 23.8 0 0 1 16.93 6.81c4.28 4.12 7.13 9.6 9.1 15.3 3.46 10.02 4.8 22.62 5.18 35.19h8.26c.38-12.57 1.72-25.17 5.18-35.2 1.96-5.7 4.81-11.17 9.1-15.29A23.83 23.83 0 0 1 132.96 0c8.62 0 15.78 3.38 20.54 9.7 4.5 5.98 6.18 13.68 6.18 21.34 0 6.48-1.99 15.31-4.01 22.84a312 312 0 0 1-4.57 15.24c6 2.77 14.61 7.6 22.42 15.12 9.96 9.6 18.76 23.8 18.76 43.5 0 20.45-8.82 38.52-25.45 51.26-16.43 12.58-39.95 19.58-69.14 19.6h-.14z" fill="#633001"/>
  <path d="M62.29 7.29c-12.63 0-18.44 9.51-18.44 22.67 0 10.46 6.76 31.41 9.53 39.57a3.67 3.67 0 0 1-2.15 4.55c-10.12 4.03-39.98 18.79-39.98 52.59 0 35.6 30.35 62.45 86.31 62.49h.14c55.96-.04 86.3-26.89 86.3-62.5 0-33.79-29.86-48.55-39.98-52.58a3.67 3.67 0 0 1-2.14-4.55c2.77-8.16 9.53-29.1 9.53-39.57 0-13.16-5.82-22.67-18.44-22.67-18.18 0-22.7 26-23.03 53.92a3.39 3.39 0 0 1-3.36 3.37h-17.9a3.39 3.39 0 0 1-3.36-3.37C85 33.3 80.47 7.29 62.29 7.29z" fill="#D1884F"/>
  <path d="M97.7 177.75c-41.12 0-86.38-22.23-86.45-51.01v.13c0 35.63 30.4 62.5 86.45 62.5s86.44-26.87 86.44-62.5v-.13c-.07 28.78-45.33 51.02-86.44 51.02z" fill="#FEDC90"/>
  <path class="eye" d="M74.85 117.9c0 9.71-4.55 14.77-10.15 14.77s-10.16-5.06-10.16-14.77 4.55-14.78 10.16-14.78 10.15 5.06 10.15 14.78zm66 0c0 9.71-4.54 14.77-10.15 14.77s-10.16-5.06-10.16-14.77 4.55-14.78 10.16-14.78 10.15 5.06 10.15 14.78z" fill="#633001"/>
</svg>
