<svg viewBox="0 0 24 24" color="textDisabled" width="20" xmlns="http://www.w3.org/2000/svg" class="sc-4ba21b47-0 jhQVZS">
  <path d="M4.5 14h2a1 1 0 0 0 1-1v-2a1 1 0 0 0-1-1h-2a1 1 0 0 0-1 1v2a1 1 0 0 0 1 1Zm0 5h2a1 1 0 0 0 1-1v-2a1 1 0 0 0-1-1h-2a1 1 0 0 0-1 1v2a1 1 0 0 0 1 1Zm0-10h2a1 1 0 0 0 1-1V6a1 1 0 0 0-1-1h-2a1 1 0 0 0-1 1v2a1 1 0 0 0 1 1Zm5 5h10a1 1 0 0 0 1-1v-2a1 1 0 0 0-1-1h-10a1 1 0 0 0-1 1v2a1 1 0 0 0 1 1Zm0 5h10a1 1 0 0 0 1-1v-2a1 1 0 0 0-1-1h-10a1 1 0 0 0-1 1v2a1 1 0 0 0 1 1Zm-1-13v2a1 1 0 0 0 1 1h10a1 1 0 0 0 1-1V6a1 1 0 0 0-1-1h-10a1 1 0 0 0-1 1Z"/>
</svg>
