<svg viewBox="0 0 24 24" color="primary" width="20" xmlns="http://www.w3.org/2000/svg" class="sc-4ba21b47-0 hgqOyz">
  <path d="M4.5 12h3a1 1 0 0 0 1-1V7a1 1 0 0 0-1-1h-3a1 1 0 0 0-1 1v4a1 1 0 0 0 1 1Zm0 7h3a1 1 0 0 0 1-1v-4a1 1 0 0 0-1-1h-3a1 1 0 0 0-1 1v4a1 1 0 0 0 1 1Zm6 0h3a1 1 0 0 0 1-1v-4a1 1 0 0 0-1-1h-3a1 1 0 0 0-1 1v4a1 1 0 0 0 1 1Zm6 0h3a1 1 0 0 0 1-1v-4a1 1 0 0 0-1-1h-3a1 1 0 0 0-1 1v4a1 1 0 0 0 1 1Zm-6-7h3a1 1 0 0 0 1-1V7a1 1 0 0 0-1-1h-3a1 1 0 0 0-1 1v4a1 1 0 0 0 1 1Zm5-5v4a1 1 0 0 0 1 1h3a1 1 0 0 0 1-1V7a1 1 0 0 0-1-1h-3a1 1 0 0 0-1 1Z"/>
</svg>
