<svg width="258" height="45" viewBox="0 0 258 45" fill="none" xmlns="http://www.w3.org/2000/svg"><rect x="1.64043" y="13.5646" width="254.912" height="29.5807" rx="14.7904" fill="#FAF9FA"></rect><path d="M22.3406 36.2051C21.1187 36.2051 20.1363 35.9367 19.3936 35.4C18.6508 34.8496 18.1057 34.0652 17.7583 33.0468C17.4228 32.0147 17.2551 30.783 17.2551 29.3518C17.2551 27.8656 17.4169 26.5996 17.7403 25.5537C18.0758 24.5078 18.6149 23.7096 19.3576 23.1592C20.1004 22.6087 21.0947 22.3335 22.3406 22.3335C23.5865 22.3335 24.5749 22.6087 25.3057 23.1592C26.0484 23.7096 26.5815 24.5078 26.905 25.5537C27.2404 26.5996 27.4082 27.8656 27.4082 29.3518C27.4082 30.783 27.2404 32.0147 26.905 33.0468C26.5696 34.0652 26.0305 34.8496 25.2877 35.4C24.5449 35.9367 23.5626 36.2051 22.3406 36.2051ZM22.3406 34.2853C23.4907 34.2853 24.2934 33.8518 24.7486 32.9849C25.2038 32.1041 25.4315 30.8931 25.4315 29.3518C25.4315 27.7142 25.2098 26.4551 24.7666 25.5743C24.3233 24.6936 23.5147 24.2532 22.3406 24.2532C21.1666 24.2532 20.3519 24.6936 19.8967 25.5743C19.4535 26.4551 19.2318 27.7142 19.2318 29.3518C19.2318 30.8931 19.4594 32.1041 19.9147 32.9849C20.3699 33.8518 21.1786 34.2853 22.3406 34.2853Z" fill="#BDC2C4"></path><path d="M64.7859 35.8335V24.5216L62.917 24.8931V23.0147L66.7266 22.3335V35.8335H64.7859Z" fill="#BDC2C4"></path><path d="M107.094 36.0399C106.747 36.0399 106.363 36.0124 105.944 35.9574C105.525 35.9161 105.123 35.8473 104.74 35.7509C104.369 35.6546 104.057 35.5514 103.806 35.4413V33.4803C104.285 33.7005 104.776 33.8656 105.279 33.9757C105.794 34.072 106.309 34.1202 106.825 34.1202C107.759 34.1202 108.454 33.9619 108.909 33.6454C109.364 33.3289 109.592 32.7716 109.592 31.9734C109.592 31.2578 109.382 30.7418 108.963 30.4252C108.556 30.1087 107.969 29.9505 107.202 29.9505H105.459L105.621 28.2785H107.076C108.598 28.2785 109.358 27.5904 109.358 26.2142C109.358 25.5399 109.155 25.0445 108.747 24.728C108.352 24.4115 107.711 24.2532 106.825 24.2532C106.333 24.2532 105.836 24.3083 105.333 24.4184C104.842 24.5285 104.405 24.6798 104.021 24.8725V22.9528C104.381 22.7876 104.848 22.6431 105.423 22.5193C105.998 22.3954 106.567 22.3335 107.13 22.3335C108.544 22.3335 109.592 22.6775 110.275 23.3656C110.97 24.0537 111.317 24.9344 111.317 26.0078C111.317 26.6684 111.173 27.2876 110.886 27.8656C110.61 28.4436 110.173 28.8564 109.574 29.1041C110.269 29.3106 110.772 29.6821 111.083 30.2188C111.407 30.7555 111.569 31.3885 111.569 32.1179C111.569 33.4528 111.161 34.4436 110.347 35.0904C109.532 35.7234 108.448 36.0399 107.094 36.0399Z" fill="#BDC2C4"></path><path d="M150.378 36.0399C148.928 36.0399 147.832 35.6271 147.089 34.8014C146.358 33.9757 145.993 32.6752 145.993 30.9V27.9069C145.993 26.806 146.191 25.8358 146.586 24.9963C146.981 24.1569 147.544 23.5032 148.275 23.0353C149.006 22.5674 149.874 22.3335 150.881 22.3335C151.468 22.3335 151.977 22.3748 152.408 22.4574C152.851 22.5399 153.259 22.6569 153.63 22.8083V24.728C153.259 24.5766 152.857 24.4596 152.426 24.3771C152.007 24.2945 151.534 24.2532 151.007 24.2532C149.928 24.2532 149.132 24.5491 148.617 25.1408C148.101 25.7188 147.844 26.4963 147.844 27.4734V28.2991C148.263 27.9413 148.742 27.6798 149.281 27.5147C149.833 27.3358 150.33 27.2463 150.773 27.2463C152.127 27.2463 153.127 27.6248 153.774 28.3817C154.421 29.1385 154.744 30.2119 154.744 31.6018C154.744 32.923 154.391 33.9963 153.684 34.822C152.977 35.634 151.875 36.0399 150.378 36.0399ZM150.396 34.3473C151.258 34.3473 151.905 34.1064 152.336 33.6248C152.768 33.1431 152.983 32.4963 152.983 31.6844C152.983 30.8312 152.804 30.1707 152.444 29.7028C152.097 29.2211 151.444 28.9803 150.485 28.9803C150.006 28.9803 149.533 29.0766 149.066 29.2693C148.611 29.4482 148.203 29.689 147.844 29.9918V31.4161C147.844 33.3702 148.694 34.3473 150.396 34.3473Z" fill="#BDC2C4"></path><path d="M193.056 36.0399C191.606 36.0399 190.51 35.6271 189.768 34.8014C189.037 33.9757 188.671 32.6752 188.671 30.9V27.9069C188.671 26.806 188.869 25.8358 189.264 24.9963C189.66 24.1569 190.223 23.5032 190.954 23.0353C191.684 22.5674 192.553 22.3335 193.559 22.3335C194.146 22.3335 194.655 22.3748 195.087 22.4574C195.53 22.5399 195.937 22.6569 196.309 22.8083V24.728C195.937 24.5766 195.536 24.4596 195.105 24.3771C194.685 24.2945 194.212 24.2532 193.685 24.2532C192.607 24.2532 191.81 24.5491 191.295 25.1408C190.78 25.7188 190.522 26.4963 190.522 27.4734V28.2991C190.942 27.9413 191.421 27.6798 191.96 27.5147C192.511 27.3358 193.008 27.2463 193.451 27.2463C194.805 27.2463 195.805 27.6248 196.452 28.3817C197.099 29.1385 197.423 30.2119 197.423 31.6018C197.423 32.923 197.069 33.9963 196.363 34.822C195.656 35.634 194.554 36.0399 193.056 36.0399ZM193.074 34.3473C193.937 34.3473 194.583 34.1064 195.015 33.6248C195.446 33.1431 195.662 32.4963 195.662 31.6844C195.662 30.8312 195.482 30.1707 195.123 29.7028C194.775 29.2211 194.122 28.9803 193.164 28.9803C192.685 28.9803 192.211 29.0766 191.744 29.2693C191.289 29.4482 190.882 29.689 190.522 29.9918V31.4161C190.522 33.3702 191.373 34.3473 193.074 34.3473Z" fill="#BDC2C4"></path><path d="M231.929 35.8335V34.7188C232.241 33.8794 232.672 33.1225 233.223 32.4482C233.786 31.7739 234.385 31.1202 235.02 30.4872C235.499 30.0055 235.895 29.5996 236.206 29.2693C236.53 28.9252 236.781 28.6156 236.961 28.3404C237.14 28.0652 237.266 27.783 237.338 27.494C237.41 27.1913 237.446 26.8404 237.446 26.4413C237.446 25.7257 237.266 25.1821 236.907 24.8106C236.547 24.439 235.948 24.2532 235.11 24.2532C234.655 24.2532 234.187 24.3083 233.708 24.4184C233.241 24.5285 232.792 24.6798 232.36 24.8725V22.8908C232.78 22.7257 233.277 22.595 233.852 22.4986C234.427 22.3885 234.972 22.3335 235.487 22.3335C236.781 22.3335 237.757 22.6982 238.416 23.4275C239.075 24.1569 239.405 25.1546 239.405 26.4207C239.405 27.0537 239.309 27.6179 239.117 28.1133C238.925 28.595 238.662 29.056 238.326 29.4963C237.991 29.9229 237.602 30.3633 237.158 30.8174C236.607 31.3679 236.086 31.9046 235.595 32.4275C235.116 32.9367 234.727 33.4941 234.427 34.0996H239.53V35.8335H231.929Z" fill="#BDC2C4"></path><rect x="1.64043" y="13.5646" width="254.912" height="29.5807" rx="14.7904" stroke="#E7E3EB" stroke-width="1.29014"></rect><path d="M109.389 1.33398C106.735 1.33398 104.582 3.47467 104.582 6.11231C104.582 8.74994 106.735 10.8906 109.389 10.8906C112.042 10.8906 114.196 8.74994 114.196 6.11231C114.196 3.47467 112.042 1.33398 109.389 1.33398ZM109.389 9.93497C107.269 9.93497 105.543 8.21955 105.543 6.11231C105.543 4.00507 107.269 2.28965 109.389 2.28965C111.509 2.28965 113.234 4.00507 113.234 6.11231C113.234 8.21955 111.509 9.93497 109.389 9.93497ZM111.254 4.33955L108.427 7.1492L107.524 6.25088C107.336 6.06452 107.034 6.06452 106.846 6.25088C106.659 6.43723 106.659 6.73827 106.846 6.92462L108.091 8.16221C108.278 8.34856 108.581 8.34856 108.769 8.16221L111.936 5.01329C112.124 4.82694 112.124 4.5259 111.936 4.33955C111.749 4.1532 111.441 4.1532 111.254 4.33955Z" fill="#31D0AA"></path><path d="M152.65 1.33398C149.997 1.33398 147.843 3.47467 147.843 6.11231C147.843 8.74994 149.997 10.8906 152.65 10.8906C155.303 10.8906 157.457 8.74994 157.457 6.11231C157.457 3.47467 155.303 1.33398 152.65 1.33398ZM152.65 9.93497C150.53 9.93497 148.805 8.21955 148.805 6.11231C148.805 4.00507 150.53 2.28965 152.65 2.28965C154.77 2.28965 156.496 4.00507 156.496 6.11231C156.496 8.21955 154.77 9.93497 152.65 9.93497ZM154.515 4.33955L151.689 7.1492L150.785 6.25088C150.598 6.06452 150.295 6.06452 150.107 6.25088C149.92 6.43723 149.92 6.73827 150.107 6.92462L151.352 8.16221C151.54 8.34856 151.843 8.34856 152.03 8.16221L155.198 5.01329C155.385 4.82694 155.385 4.5259 155.198 4.33955C155.01 4.1532 154.703 4.1532 154.515 4.33955Z" fill="#31D0AA"></path><path d="M195.911 1.33398C193.258 1.33398 191.104 3.47467 191.104 6.11231C191.104 8.74994 193.258 10.8906 195.911 10.8906C198.565 10.8906 200.718 8.74994 200.718 6.11231C200.718 3.47467 198.565 1.33398 195.911 1.33398ZM195.911 9.93497C193.791 9.93497 192.066 8.21955 192.066 6.11231C192.066 4.00507 193.791 2.28965 195.911 2.28965C198.031 2.28965 199.757 4.00507 199.757 6.11231C199.757 8.21955 198.031 9.93497 195.911 9.93497ZM197.776 4.33955L194.95 7.1492L194.046 6.25088C193.859 6.06452 193.556 6.06452 193.368 6.25088C193.181 6.43723 193.181 6.73827 193.368 6.92462L194.613 8.16221C194.801 8.34856 195.104 8.34856 195.291 8.16221L198.459 5.01329C198.646 4.82694 198.646 4.5259 198.459 4.33955C198.271 4.1532 197.964 4.1532 197.776 4.33955Z" fill="#31D0AA"></path><g clip-path="url(#clipExampleB)"><path d="M238.211 1.33398C235.558 1.33398 233.404 3.47467 233.404 6.11231C233.404 8.74994 235.558 10.8906 238.211 10.8906C240.864 10.8906 243.018 8.74994 243.018 6.11231C243.018 3.47467 240.864 1.33398 238.211 1.33398ZM238.211 9.93497C236.091 9.93497 234.366 8.21955 234.366 6.11231C234.366 4.00507 236.091 2.28965 238.211 2.28965C240.331 2.28965 242.057 4.00507 242.057 6.11231C242.057 8.21955 240.331 9.93497 238.211 9.93497ZM240.076 4.33955L237.25 7.1492L236.346 6.25088C236.159 6.06452 235.856 6.06452 235.668 6.25088C235.481 6.43723 235.481 6.73827 235.668 6.92462L236.913 8.16221C237.101 8.34856 237.404 8.34856 237.591 8.16221L240.759 5.01329C240.946 4.82694 240.946 4.5259 240.759 4.33955C240.571 4.1532 240.264 4.1532 240.076 4.33955Z" fill="#31D0AA"></path></g><path d="M69.0119 1.33398C66.3585 1.33398 64.2051 3.47467 64.2051 6.11231C64.2051 8.74994 66.3585 10.8906 69.0119 10.8906C71.6652 10.8906 73.8187 8.74994 73.8187 6.11231C73.8187 3.47467 71.6652 1.33398 69.0119 1.33398ZM69.0119 9.93497C66.8921 9.93497 65.1664 8.21955 65.1664 6.11231C65.1664 4.00507 66.8921 2.28965 69.0119 2.28965C71.1317 2.28965 72.8573 4.00507 72.8573 6.11231C72.8573 8.21955 71.1317 9.93497 69.0119 9.93497ZM70.8769 4.33955L68.0505 7.1492L67.1468 6.25088C66.9594 6.06452 66.6565 6.06452 66.4691 6.25088C66.2816 6.43723 66.2816 6.73827 66.4691 6.92462L67.714 8.16221C67.9015 8.34856 68.2043 8.34856 68.3918 8.16221L71.5595 5.01329C71.7469 4.82694 71.7469 4.5259 71.5595 4.33955C71.372 4.1532 71.0644 4.1532 70.8769 4.33955Z" fill="#31D0AA"></path><path d="M27.3368 3.1067C27.1494 2.92035 26.8465 2.92035 26.6591 3.1067L24.3085 5.43852L21.958 3.10192C21.7705 2.91557 21.4677 2.91557 21.2802 3.10192C21.0928 3.28828 21.0928 3.58931 21.2802 3.77567L23.6308 6.11227L21.2802 8.44887C21.0928 8.63522 21.0928 8.93626 21.2802 9.12261C21.4677 9.30897 21.7705 9.30897 21.958 9.12261L24.3085 6.78601L26.6591 9.12261C26.8465 9.30897 27.1494 9.30897 27.3368 9.12261C27.5243 8.93626 27.5243 8.63522 27.3368 8.44887L24.9863 6.11227L27.3368 3.77567C27.5195 3.59409 27.5195 3.28828 27.3368 3.1067Z" fill="#ED4B9E"></path><defs><clipPath id="clipExampleB"><rect width="11.5363" height="11.468" fill="white" transform="translate(232.443 0.378296)"></rect></clipPath></defs></svg>