<svg viewBox="0 0 198 199" class="sc-4ba21b47-0 IIbzK mobile-icon" color="text" width="20" xmlns="http://www.w3.org/2000/svg">
  <path fill-rule="evenodd" clip-rule="evenodd" d="M98.55 198.6c-29.49-.01-53.24-7.02-69.84-19.6C11.9 166.26 3 148.2 3 127.75c0-19.7 8.9-33.9 18.95-43.51A83.55 83.55 0 0 1 44.6 69.12 309.01 309.01 0 0 1 40 53.88c-2.05-7.53-4.06-16.36-4.06-22.84 0-7.66 1.69-15.36 6.24-21.34C46.98 3.4 54.22 0 62.93 0c6.8 0 12.58 2.5 17.1 6.81 4.33 4.12 7.2 9.6 9.2 15.3 3.48 10.02 4.84 22.62 5.23 35.19h8.34c.38-12.57 1.74-25.17 5.23-35.2 1.99-5.7 4.86-11.17 9.19-15.29A24.2 24.2 0 0 1 134.32 0c8.71 0 15.95 3.38 20.76 9.7 4.55 5.98 6.24 13.68 6.24 21.34 0 6.48-2 15.31-4.06 22.84a309.01 309.01 0 0 1-4.6 15.24 83.54 83.54 0 0 1 22.64 15.12c10.06 9.6 18.95 23.8 18.95 43.5 0 20.45-8.9 38.52-25.7 51.26-16.6 12.58-40.36 19.58-69.85 19.6h-.15z" fill="#633001"/>
  <path d="M62.93 7.29c-12.76 0-18.63 9.51-18.63 22.67 0 10.46 6.82 31.41 9.62 39.57a3.66 3.66 0 0 1-2.16 4.55c-10.22 4.03-40.4 18.79-40.4 52.59 0 35.6 30.66 62.45 87.2 62.49h.13c56.54-.04 87.2-26.89 87.2-62.5 0-33.79-30.17-48.55-40.4-52.58a3.66 3.66 0 0 1-2.16-4.55c2.8-8.16 9.62-29.1 9.62-39.57 0-13.16-5.87-22.67-18.62-22.67-18.37 0-22.94 26-23.27 53.92a3.4 3.4 0 0 1-3.39 3.37H89.58a3.4 3.4 0 0 1-3.4-3.37c-.32-27.91-4.9-53.92-23.25-53.92z" fill="#D1884F"/>
  <path d="M98.7 177.75c-41.55 0-87.26-22.23-87.33-51.01v.13c0 35.63 30.7 62.5 87.32 62.5 56.62 0 87.33-26.87 87.33-62.5v-.13c-.07 28.78-45.79 51.02-87.33 51.02z" fill="#FEDC90"/>
  <path class="eye" d="M75.61 117.9c0 9.71-4.59 14.77-10.25 14.77-5.67 0-10.26-5.06-10.26-14.77s4.6-14.78 10.26-14.78 10.25 5.06 10.25 14.78zm66.68 0c0 9.71-4.6 14.77-10.26 14.77s-10.26-5.06-10.26-14.77 4.6-14.78 10.26-14.78c5.67 0 10.26 5.06 10.26 14.78z" fill="#633001"/>
</svg>
