<svg class="sc-8a800401-0 fGhPpn sc-dcf4ec8f-1 jPHXOL" color="text" width="1956" xmlns="http://www.w3.org/2000/svg" height="1956"><g filter="url(#a)" fill="#280D5F"><path d="m978 20 9.526 776.229 90.614-770.981-71.67 772.973 170.71-757.286-152.07 761.247 248.93-735.294-230.81 741.182 324.42-705.247-307.01 712.996L1457 148.348l-379.86 676.997 463.96-622.383-448.55 633.582 526.48-570.477-512.32 583.225 583.22-512.319-570.47 526.478 633.58-448.549-622.39 463.963 677-379.865-667.47 396.365 713-307.019-705.25 324.424 741.18-230.808-735.29 248.928 761.25-152.069-757.29 170.705 772.97-71.664-770.98 90.612L1936 978l-776.23 9.526 770.98 90.614-772.97-71.67 757.29 170.71-761.25-152.07 735.29 248.93-741.18-230.81 705.25 324.42-713-307.01L1807.65 1457l-677-379.86 622.39 463.96-633.58-448.55 570.47 526.48-583.22-512.32 512.32 583.22-526.48-570.47 448.55 633.58-463.96-622.39 379.86 677-396.36-667.47 307.01 713-324.42-705.25 230.81 741.18-248.93-735.29 152.07 761.25-170.71-757.29 71.67 772.97-90.614-770.98L978 1936l-9.526-776.23-90.612 770.98 71.664-772.97-170.705 757.29 152.069-761.25-248.928 735.29 230.808-741.18-324.424 705.25 307.019-713L499 1807.65l379.865-677-463.963 622.39 448.549-633.58-526.478 570.47 512.319-583.22-583.225 512.32 570.477-526.48-633.582 448.55 622.383-463.96L148.348 1457l667.471-396.36-712.996 307.01 705.247-324.42-741.182 230.81 735.294-248.93-761.247 152.07 757.286-170.71-772.973 71.67 770.981-90.614L20 978l776.229-9.526-770.981-90.612 772.973 71.664L40.935 778.821 802.182 930.89 66.888 681.962 808.07 912.77 102.823 588.346l712.996 307.019L148.348 499l676.997 379.865-622.383-463.963 633.582 448.549-570.477-526.478 583.225 512.319-512.319-583.225 526.478 570.477-448.549-633.582 463.963 622.383L499 148.348l396.365 667.471-307.019-712.996L912.77 808.07 681.962 66.888 930.89 802.182 778.821 40.935 949.526 798.22 877.862 25.248l90.612 770.981L978 20Z" fill="url(&quot;#b&quot;)" fill-opacity=".1"/></g><defs><radialGradient id="b" cx="0" cy="0" r="1" gradientUnits="userSpaceOnUse" gradientTransform="rotate(90 0 978) scale(958)"><stop offset=".115" stop-color="#fff" stop-opacity="0"/><stop offset=".375" stop-color="#fff"/><stop offset="1" stop-color="#fff" stop-opacity="0"/></radialGradient><filter id="a" x="0" y="0" width="1956" height="1956" filterUnits="userSpaceOnUse" color-interpolation-filters="sRGB"><feFlood flood-opacity="0" result="BackgroundImageFix"/><feBlend in="SourceGraphic" in2="BackgroundImageFix" result="shape"/><feGaussianBlur stdDeviation="10" result="effect1_foregroundBlur"/></filter></defs></svg>