<svg viewBox="0 0 72 72" class="sc-4ba21b47-0 IIbzK sc-c84637f9-1 eaUnMy" color="text" width="20" xmlns="http://www.w3.org/2000/svg"><path d="M72 36c0 19.882-16.118 36-36 36S0 55.882 0 36 16.118 0 36 0s36 16.118 36 36Z" fill="#e9eaeb"/><mask id="a" mask-type="alpha" maskUnits="userSpaceOnUse" x="3" y="3" width="66" height="66"><path d="M68.25 36c0 17.811-14.439 32.25-32.25 32.25S3.75 53.811 3.75 36 18.189 3.75 36 3.75 68.25 18.189 68.25 36Z" fill="#C4C4C4"/></mask><g mask="url(#a)"><path fill-rule="evenodd" clip-rule="evenodd" d="M20.993 23.265c5.136-.129 9.09 4.463 8.21 9.523l-1.52 8.757a42.362 42.362 0 0 1 8.04-.758c1.983 0 3.92.134 5.786.387l7.777-11.601a8.08 8.08 0 0 1 11.212-2.213c4.285 2.873 4.818 8.97 1.096 12.542l-6.336 6.08c4.646 3.019 7.872 7.316 7.873 12.425v3.915c0 5.322-3.521 9.778-8.443 12.786-4.96 3.031-11.672 4.833-18.965 4.833-7.294 0-14.004-1.802-18.965-4.833-4.922-3.008-8.443-7.464-8.443-12.786v-3.915c0-3.978 1.981-7.49 5.023-10.248l-.328-16.544c-.09-4.5 3.483-8.236 7.983-8.35Zm-5.376 25.886a4.347 4.347 0 0 1-.03-.426l-.34-17.154a5.96 5.96 0 0 1 5.802-6.069c3.722-.094 6.588 3.231 5.95 6.903l-2.102 12.111a35.39 35.39 0 0 1 2.376-.603 39.822 39.822 0 0 1 8.45-.888c2.44 0 4.798.212 7.029.608.12-.372.294-.733.522-1.074l7.87-11.74a5.843 5.843 0 0 1 8.108-1.6c3.098 2.077 3.484 6.486.793 9.069l-8.498 8.156c.717.355 1.402.733 2.05 1.133 4.51 2.78 7.296 6.606 7.296 10.83v3.915c0 8.495-11.269 15.382-25.17 15.382-13.901 0-25.17-6.887-25.17-15.382v-3.915c0-3.475 1.885-6.68 5.064-9.256Z" fill="#bdc2c4"/><path d="M60.893 62.322c0 8.495-11.269 15.382-25.17 15.382-13.901 0-25.17-6.887-25.17-15.382v-3.915h50.34v3.915Z" fill="#e9eaeb"/><path fill-rule="evenodd" clip-rule="evenodd" d="M27 32.405c.637-3.672-2.229-6.997-5.951-6.903a5.96 5.96 0 0 0-5.802 6.069l.34 17.153c.003.145.013.287.03.427-3.18 2.576-5.065 5.781-5.065 9.256 0 8.495 11.27 15.382 25.17 15.382 13.902 0 25.171-6.887 25.171-15.382 0-4.832-3.645-9.143-9.346-11.963l8.498-8.156c2.69-2.583 2.305-6.992-.793-9.07a5.843 5.843 0 0 0-8.107 1.6l-7.87 11.74c-.23.341-.403.703-.523 1.075a40.316 40.316 0 0 0-7.03-.608c-3.875 0-7.546.535-10.825 1.491L27 32.406Z" fill="#e9eaeb"/><path d="M32.087 57.288c0 2.317-1.252 4.195-2.796 4.195-1.545 0-2.797-1.878-2.797-4.195s1.252-4.195 2.797-4.195c1.544 0 2.796 1.878 2.796 4.195Z" fill="#bdc2c4"/><path fill-rule="evenodd" clip-rule="evenodd" d="M28.891 54.035c.57.855.959 2.1.959 3.533a1.119 1.119 0 0 0 2.237 0c0-1.812-.487-3.503-1.334-4.774-.842-1.263-2.128-2.218-3.7-2.218-1.571 0-2.857.955-3.7 2.218-.846 1.27-1.334 2.962-1.334 4.774 0 .982.143 1.923.405 2.778a1.119 1.119 0 1 0 2.14-.655 7.274 7.274 0 0 1-.308-2.123c0-1.432.39-2.678.96-3.533.575-.862 1.246-1.222 1.837-1.222s1.263.36 1.838 1.222ZM48.188 54.035c.57.855.96 2.1.96 3.533a1.119 1.119 0 1 0 2.236 0c0-1.812-.487-3.503-1.334-4.774-.842-1.263-2.128-2.218-3.7-2.218-1.571 0-2.857.955-3.699 2.218-.847 1.27-1.335 2.962-1.335 4.774 0 .982.143 1.923.406 2.778a1.119 1.119 0 0 0 2.139-.655 7.27 7.27 0 0 1-.307-2.123c0-1.432.389-2.678.959-3.533.575-.862 1.247-1.222 1.837-1.222.591 0 1.263.36 1.838 1.222Z" fill="#bdc2c4"/><path d="M51.384 57.288c0 2.317-1.252 4.195-2.796 4.195-1.545 0-2.797-1.878-2.797-4.195s1.252-4.195 2.797-4.195c1.544 0 2.796 1.878 2.796 4.195ZM34.022 25.946v-.676c0-.95.19-1.745.57-2.386.404-.641.938-1.27 1.602-1.888a16.823 16.823 0 0 1 1.817-1.531 7.359 7.359 0 0 0 1.46-1.354c.38-.474.57-1.032.57-1.673 0-.926-.333-1.58-.997-1.959-.641-.404-1.722-.605-3.241-.605-.997 0-1.983.13-2.956.391-.974.238-1.805.546-2.493.926v-4.808c.879-.427 1.911-.771 3.098-1.032 1.211-.261 2.529-.392 3.953-.392 2.754 0 4.856.605 6.304 1.816 1.448 1.187 2.172 2.825 2.172 4.915 0 1.33-.273 2.41-.819 3.24-.546.808-1.341 1.639-2.386 2.494a64.494 64.494 0 0 0-2.208 1.923c-.594.522-.89 1.234-.89 2.136v.463h-5.556Zm-.25 6.304v-4.131h6.02v4.13h-6.02Z" fill="#bdc2c4"/></g><path fill-rule="evenodd" clip-rule="evenodd" d="m71.984 37.09-2.25-.067a34.427 34.427 0 0 0 0-2.046l2.25-.067a36.553 36.553 0 0 1 0 2.18Zm-.13-4.35-2.24.201a33.84 33.84 0 0 0-.244-2.023l2.225-.336c.108.712.194 1.432.26 2.158Zm-.649-4.299-2.2.47a33.518 33.518 0 0 0-.486-1.979l2.167-.603c.194.696.367 1.4.52 2.112Zm-1.165-4.188-2.127.733a33.459 33.459 0 0 0-.723-1.905l2.078-.861c.277.667.535 1.345.772 2.033Zm-1.665-4.016-2.023.987a33.636 33.636 0 0 0-.949-1.805l1.96-1.107a35.9 35.9 0 0 1 1.012 1.925Zm-2.14-3.785-1.888 1.223a33.91 33.91 0 0 0-1.16-1.677l1.811-1.335c.43.583.843 1.18 1.237 1.789Zm-2.579-3.5-1.728 1.441a34.012 34.012 0 0 0-1.353-1.526l1.638-1.542c.497.527.978 1.07 1.443 1.627Zm-2.98-3.165-1.543 1.638a33.95 33.95 0 0 0-1.526-1.353l1.441-1.728c.557.465 1.1.946 1.627 1.443Zm-3.34-2.785-1.334 1.81a33.881 33.881 0 0 0-1.677-1.159l1.223-1.888c.61.394 1.206.807 1.789 1.237Zm-3.648-2.364-1.107 1.959c-.59-.334-1.192-.65-1.805-.95l.987-2.022c.653.319 1.295.657 1.925 1.013ZM49.78 2.732 48.92 4.81c-.626-.26-1.261-.5-1.905-.723l.733-2.127c.688.237 1.366.495 2.033.772Zm-4.109-1.418-.603 2.168a33.502 33.502 0 0 0-1.98-.487l.47-2.2c.713.152 1.417.325 2.113.519ZM41.418.405l-.336 2.225a33.8 33.8 0 0 0-2.023-.243L39.26.146c.726.065 1.446.151 2.158.259ZM37.09.016a36.67 36.67 0 0 0-2.18 0l.067 2.25a34.427 34.427 0 0 1 2.046 0l.067-2.25Zm-4.35.13.201 2.24a33.8 33.8 0 0 0-2.023.244L30.582.405a36.048 36.048 0 0 1 2.158-.26ZM28.44.795l.47 2.2c-.667.143-1.327.305-1.979.487l-.603-2.168c.696-.194 1.4-.367 2.112-.52ZM24.253 1.96l.733 2.127c-.644.222-1.279.464-1.905.723l-.861-2.078a35.765 35.765 0 0 1 2.033-.772Zm-4.016 1.665.987 2.023c-.613.298-1.214.615-1.805.949l-1.107-1.96c.63-.355 1.272-.693 1.925-1.012Zm-3.785 2.14 1.223 1.888c-.571.37-1.13.757-1.677 1.16l-1.335-1.811c.583-.43 1.18-.843 1.789-1.237Zm-3.5 2.579 1.441 1.728c-.522.436-1.03.887-1.526 1.353l-1.542-1.638c.527-.497 1.07-.978 1.627-1.443Zm-3.165 2.98 1.638 1.543a33.95 33.95 0 0 0-1.353 1.526l-1.728-1.441c.465-.557.946-1.1 1.443-1.627Zm-2.785 3.34 1.81 1.334c-.402.547-.789 1.106-1.159 1.677l-1.888-1.223c.394-.61.807-1.206 1.237-1.789Zm-2.364 3.648 1.959 1.107c-.334.59-.65 1.192-.95 1.805l-2.022-.987c.319-.653.657-1.295 1.013-1.925ZM2.732 22.22l2.078.861c-.26.626-.5 1.261-.723 1.905l-2.127-.733c.237-.688.495-1.366.772-2.033Zm-1.418 4.109 2.168.603a33.502 33.502 0 0 0-.487 1.98l-2.2-.47c.152-.713.325-1.417.519-2.113Zm-.909 4.253 2.225.336a33.8 33.8 0 0 0-.243 2.023L.146 32.74c.065-.726.151-1.446.259-2.158ZM.016 34.91a36.67 36.67 0 0 0 0 2.18l2.25-.067a34.427 34.427 0 0 1 0-2.046l-2.25-.067Zm.13 4.35 2.24-.201a33.8 33.8 0 0 0 .244 2.023l-2.225.336a36.047 36.047 0 0 1-.26-2.158Zm.649 4.299 2.2-.47c.143.667.305 1.327.487 1.979l-2.168.603c-.194-.696-.367-1.4-.52-2.112Zm1.165 4.189 2.127-.734c.222.644.464 1.279.723 1.904l-2.078.862a35.765 35.765 0 0 1-.772-2.032Zm1.665 4.015 2.023-.986c.298.612.615 1.213.949 1.804l-1.96 1.107a35.886 35.886 0 0 1-1.012-1.925Zm2.14 3.785 1.888-1.223c.37.571.757 1.13 1.16 1.677l-1.811 1.335c-.43-.583-.843-1.18-1.237-1.789Zm2.579 3.5 1.728-1.441c.436.522.887 1.03 1.353 1.526l-1.638 1.542a36.233 36.233 0 0 1-1.443-1.627Zm2.98 3.165 1.543-1.638c.495.466 1.004.917 1.526 1.353l-1.441 1.728c-.557-.465-1.1-.946-1.627-1.443Zm3.34 2.785 1.334-1.81c.547.402 1.106.789 1.677 1.159l-1.223 1.888a36.07 36.07 0 0 1-1.789-1.237Zm3.648 2.364 1.107-1.959c.59.334 1.192.65 1.805.95l-.987 2.022a35.793 35.793 0 0 1-1.925-1.013Zm3.908 1.906.861-2.078c.626.26 1.261.5 1.905.723l-.733 2.127a35.72 35.72 0 0 1-2.033-.772Zm4.109 1.418.603-2.168c.652.182 1.312.344 1.98.487l-.47 2.2a35.703 35.703 0 0 1-2.113-.519Zm4.253.909.336-2.225c.668.101 1.342.182 2.023.243l-.201 2.241a36.158 36.158 0 0 1-2.158-.259Zm4.328.389.067-2.25a34.427 34.427 0 0 0 2.046 0l.067 2.25a36.553 36.553 0 0 1-2.18 0Zm4.35-.13-.201-2.24a33.84 33.84 0 0 0 2.023-.244l.336 2.225c-.712.108-1.432.194-2.158.26Zm4.299-.649-.47-2.2a33.518 33.518 0 0 0 1.979-.486l.603 2.167c-.696.194-1.4.367-2.112.52Zm4.189-1.165-.734-2.127c.644-.222 1.279-.464 1.904-.723l.862 2.078a35.72 35.72 0 0 1-2.032.772Zm4.015-1.665-.986-2.023a33.636 33.636 0 0 0 1.804-.949l1.107 1.96c-.63.355-1.272.693-1.925 1.012Zm3.785-2.14-1.223-1.888a33.91 33.91 0 0 0 1.677-1.16l1.335 1.811c-.583.43-1.18.843-1.789 1.237Zm3.5-2.579-1.441-1.728a34.012 34.012 0 0 0 1.526-1.353l1.542 1.638c-.527.497-1.07.978-1.627 1.443Zm3.165-2.98-1.638-1.543c.466-.495.917-1.004 1.353-1.526l1.728 1.441c-.465.557-.946 1.1-1.443 1.627Zm2.785-3.34-1.81-1.334a33.91 33.91 0 0 0 1.159-1.677l1.888 1.223a36.07 36.07 0 0 1-1.237 1.789Zm2.364-3.648-1.959-1.107c.334-.59.65-1.192.95-1.805l2.022.987a35.793 35.793 0 0 1-1.013 1.925Zm1.906-3.908-2.078-.861c.26-.626.5-1.261.723-1.905l2.127.733a35.72 35.72 0 0 1-.772 2.033Zm1.418-4.109-2.168-.603c.182-.652.344-1.312.487-1.98l2.2.47a35.703 35.703 0 0 1-.519 2.113Zm.909-4.253-2.225-.336c.101-.668.182-1.342.243-2.023l2.241.201a36.158 36.158 0 0 1-.259 2.158Z" fill="#bdc2c4"/></svg>